<svg xmlns="http://www.w3.org/2000/svg" viewBox="0 0 216 45.29"><defs><style>.cls-1{fill:#ed592a;}</style></defs><title>Asset 1</title><g id="Layer_2" data-name="Layer 2"><g id="Layer_1-2" data-name="Layer 1"><path class="cls-1" d="M33,25.79c-.61-1.45-1.25-3-1.93-4.57s-1.34-3.17-2-4.74-1.29-3.09-1.88-4.55-1.14-2.79-1.65-4a18.71,18.71,0,0,0-1.22-2.39,11.32,11.32,0,0,0-1.85-2.3A9.66,9.66,0,0,0,19.88,1.5,7.68,7.68,0,0,0,16.55.81H7.36v.41a3,3,0,0,1,1.78.68,11.72,11.72,0,0,1,1.78,1.7,19.15,19.15,0,0,1,1.59,2.21c.49.8.93,1.52,1.3,2.16L6,33.61a3,3,0,0,1-1.24,1.7A3.34,3.34,0,0,1,2.89,36H0v.4H10.61V36H7.92a1.23,1.23,0,0,1-1-.38,1.44,1.44,0,0,1-.31-.94V34.3A1.14,1.14,0,0,1,6.65,34l2.64-9.29H20.51q1.06,2.64,2.13,4.79a14.83,14.83,0,0,0,2.52,3.68,10,10,0,0,0,3.4,2.36,12,12,0,0,0,4.75.84h4.11Q35.14,31,33,25.79ZM9.44,24.27,14.11,8.83l6.2,15.44Z"/><path class="cls-1" d="M67.18,16.4a11.16,11.16,0,0,0-1.78-2.94A11.28,11.28,0,0,0,62.48,11a11.51,11.51,0,0,0-2.95-1.25,11.65,11.65,0,0,0-2.89-.38,10.66,10.66,0,0,0-3.3.49A5.9,5.9,0,0,0,51,11.22a13.59,13.59,0,0,0-.94,1,10.85,10.85,0,0,0-.63.89V8.68a16.74,16.74,0,0,1-2.64.51c-1.05.14-2.07.24-3.05.31-1.15.1-2.35.18-3.6.25H36.23v.4h3.86V44.88H36.23v.41h17v-.41H49.38V33.46a7.13,7.13,0,0,0,.58.89,12.84,12.84,0,0,0,1,1.09,2.07,2.07,0,0,0,.69.51c.29.13.57.25.84.35a3.1,3.1,0,0,0,1,.26,13.67,13.67,0,0,0,2.54.25,13.34,13.34,0,0,0,3.25-.41,12.08,12.08,0,0,0,3.25-1.32,11.45,11.45,0,0,0,2.92-2.43,11.32,11.32,0,0,0,1.78-3,15.18,15.18,0,0,0,.88-3.3A22.84,22.84,0,0,0,68.32,23a22.59,22.59,0,0,0-.26-3.33A14.63,14.63,0,0,0,67.18,16.4ZM57.53,29a8.65,8.65,0,0,1-1.09,4.08c-.14.2-.32.45-.54.74a6.82,6.82,0,0,1-.78.86,4.16,4.16,0,0,1-1,.71,2.52,2.52,0,0,1-1.17.28,2.9,2.9,0,0,1-2-.91,3.38,3.38,0,0,1-.68-1,6.68,6.68,0,0,1-.43-1.23,11.67,11.67,0,0,1-.46-3.34V17.87c0-.68,0-1.33.08-2a6.77,6.77,0,0,1,.38-1.82,11.89,11.89,0,0,1,.56-1.35,3.13,3.13,0,0,1,.86-1.09,4.33,4.33,0,0,1,1.24-.71,3.14,3.14,0,0,1,1-.21,2.55,2.55,0,0,1,1.65.64,6.27,6.27,0,0,1,1.3,1.39A8.8,8.8,0,0,1,57.55,17q.16,2.79.16,6.09T57.53,29Z"/><path class="cls-1" d="M123.35,7.9A14.34,14.34,0,0,0,120,4.65a18.44,18.44,0,0,0-3.85-2.06A28,28,0,0,0,105.63.81H86.79v.41h5.08V36H86.74A5.21,5.21,0,0,1,85,35.62a4.58,4.58,0,0,1-1.73-1.17,6.34,6.34,0,0,1-1.32-2.21,10.15,10.15,0,0,1-.51-3.5V10.51h4.47V10.1H81.41V0H81A6.78,6.78,0,0,1,80,3.07,15,15,0,0,1,77.55,6.4,14,14,0,0,1,74,9a8.73,8.73,0,0,1-4.14,1.06H68.26v.41h3.81V28.79a12.28,12.28,0,0,0,.46,3.68,4.72,4.72,0,0,0,1.52,2.31A6.52,6.52,0,0,0,76.84,36a21.91,21.91,0,0,0,4.22.35h24.41A28.8,28.8,0,0,0,116,34.73a22,22,0,0,0,3.89-2,13.7,13.7,0,0,0,3.4-3.12,15.48,15.48,0,0,0,2.41-4.55,18.9,18.9,0,0,0,.92-6.19,19.81,19.81,0,0,0-.92-6.32A16.4,16.4,0,0,0,123.35,7.9Zm-8.48,12a31,31,0,0,1-.41,5.31,21.23,21.23,0,0,1-1.07,4,11.62,11.62,0,0,1-1.52,2.84A12.68,12.68,0,0,1,110.14,34a7.88,7.88,0,0,1-4.67,2h-2.13V1.22h2.29A7.57,7.57,0,0,1,110.25,3,10.33,10.33,0,0,1,112,4.85a11.47,11.47,0,0,1,1.47,2.87,23.65,23.65,0,0,1,1,4.06,32.13,32.13,0,0,1,.41,5.43Z"/><path class="cls-1" d="M147.31,23c.95,0,2,0,3-.1a12.53,12.53,0,0,0,3-.56A5.81,5.81,0,0,0,155.71,21a3.37,3.37,0,0,0,.94-2.54,7.83,7.83,0,0,0-1.19-4.49,8.72,8.72,0,0,0-3.05-2.77,13.24,13.24,0,0,0-4.14-1.42,25.25,25.25,0,0,0-4.42-.41,23.53,23.53,0,0,0-2.51.16,18.78,18.78,0,0,0-3.2.63,16.38,16.38,0,0,0-3.37,1.4A11.46,11.46,0,0,0,131.72,14a11.83,11.83,0,0,0-2.21,3.76,15.19,15.19,0,0,0-.83,5.33,14.08,14.08,0,0,0,1.49,6.75,10.58,10.58,0,0,0,3.63,4.12,21.93,21.93,0,0,0,2.85,1.62,13.32,13.32,0,0,0,2.31.84,10.87,10.87,0,0,0,2.16.33c.71,0,1.52,0,2.43,0a15.5,15.5,0,0,0,5-.71,9.62,9.62,0,0,0,3.4-2,10.15,10.15,0,0,0,2.21-3,36.51,36.51,0,0,0,1.55-3.75l-.51-.05a22.4,22.4,0,0,1-1.3,2.91,10.43,10.43,0,0,1-1.77,2.47,8.23,8.23,0,0,1-2.44,1.7,7.74,7.74,0,0,1-3.22.63,6.83,6.83,0,0,1-4-1,6.69,6.69,0,0,1-2.21-2.62,10.65,10.65,0,0,1-1-3.63,38.9,38.9,0,0,1-.21-4V23Zm-8.18-3.15c0-1.05,0-2.15.11-3.32a15.77,15.77,0,0,1,.48-3.23,7,7,0,0,1,1.09-2.43,2.42,2.42,0,0,1,2-1h.2a3.09,3.09,0,0,1,1.4.35,3.23,3.23,0,0,1,1.24,1.33,8.52,8.52,0,0,1,.89,2.69,24.55,24.55,0,0,1,.33,4.46c0,.11,0,.28,0,.54a8.11,8.11,0,0,1-.11.86,4.47,4.47,0,0,1-.25,1,2.15,2.15,0,0,1-.48.78,2.37,2.37,0,0,1-1.35.61,9.41,9.41,0,0,1-1,.1h-4.47Z"/><path class="cls-1" d="M180.91,32.77a6.79,6.79,0,0,1-5,2.11h-.55a4.93,4.93,0,0,1-2.49-.79,6.7,6.7,0,0,1-1.73-1.67A8.73,8.73,0,0,1,170,30.31a17,17,0,0,1-.63-2.11,10,10,0,0,1-.28-1.67c0-.46-.05-.72-.05-.79s0-.56,0-1.17,0-1.11,0-1.52q0-3.56.22-6.07a17,17,0,0,1,.82-4.11,5.07,5.07,0,0,1,1.57-2.36,4,4,0,0,1,2.51-.76l.89,0a7.17,7.17,0,0,1,1,.13,2.66,2.66,0,0,1,.86.33.77.77,0,0,1,.35.69,1.46,1.46,0,0,1-.45.91,8.71,8.71,0,0,1-.82.81l-.15.21a4.45,4.45,0,0,0-1.09,1.55,4.58,4.58,0,0,0-.38,1.8,4.37,4.37,0,0,0,.38,1.8,4.73,4.73,0,0,0,1,1.47,4.47,4.47,0,0,0,1.49,1,4.6,4.6,0,0,0,1.78.36,4.22,4.22,0,0,0,1.73-.36,4.94,4.94,0,0,0,1.47-1,4.62,4.62,0,0,0,1-1.47,4.37,4.37,0,0,0,.38-1.8,5.54,5.54,0,0,0-3.12-5.13A17.81,17.81,0,0,0,172,9.34a13.59,13.59,0,0,0-2.18.23,15.21,15.21,0,0,0-2.79.79,15.91,15.91,0,0,0-3,1.55,11.56,11.56,0,0,0-2.74,2.51,12.58,12.58,0,0,0-2,3.65,14.81,14.81,0,0,0-.76,5,15.14,15.14,0,0,0,.84,5.33,11.77,11.77,0,0,0,2.18,3.76,10.87,10.87,0,0,0,3.05,2.43A16,16,0,0,0,168,36a20.27,20.27,0,0,0,3.33.64q1.6.15,2.76.15a10.77,10.77,0,0,0,4.12-.81,8.57,8.57,0,0,0,3.35-2.44l.71-1a9,9,0,0,0,1.27-2.46,20.56,20.56,0,0,0,.71-2.66l-.41-.05A11.62,11.62,0,0,1,180.91,32.77Z"/><path class="cls-1" d="M214.5,16.32a11,11,0,0,0-3.63-4.13,23.61,23.61,0,0,0-2.77-1.63A13.35,13.35,0,0,0,206,9.72a9.75,9.75,0,0,0-2-.33c-.66,0-1.45-.05-2.36-.05h-.81c-.92,0-1.7,0-2.36.05a9.75,9.75,0,0,0-2,.33,14.38,14.38,0,0,0-2.16.84,22.86,22.86,0,0,0-2.79,1.63,10.82,10.82,0,0,0-3.63,4.13,14,14,0,0,0-1.5,6.73,14.08,14.08,0,0,0,1.5,6.75,10.42,10.42,0,0,0,3.63,4.12,23.23,23.23,0,0,0,2.81,1.62,13.2,13.2,0,0,0,2.26.84,10.5,10.5,0,0,0,2.11.33c.69,0,1.5,0,2.41,0h.51c.91,0,1.7,0,2.36,0a9.1,9.1,0,0,0,2-.33,12.47,12.47,0,0,0,2.13-.84,24.82,24.82,0,0,0,2.77-1.62,10.58,10.58,0,0,0,3.63-4.12,14.08,14.08,0,0,0,1.5-6.75A14,14,0,0,0,214.5,16.32Zm-9,10.54c0,1.22-.11,2.34-.23,3.38a21.72,21.72,0,0,1-.48,2.74,5.89,5.89,0,0,1-.76,1.85,3,3,0,0,1-2.44,1.52h-.41a2.62,2.62,0,0,1-1.14-.4,6,6,0,0,1-1.45-1.17,5.21,5.21,0,0,1-.91-1.83,17.15,17.15,0,0,1-.56-2.71,33.86,33.86,0,0,1-.25-3.38c0-1.22,0-2.49,0-3.81s0-2.59,0-3.81a33.65,33.65,0,0,1,.25-3.37,17.05,17.05,0,0,1,.56-2.72,4.69,4.69,0,0,1,.91-1.78A5,5,0,0,1,200.31,10a3.43,3.43,0,0,1,.91-.2,3.1,3.1,0,0,1,.89.2,5.39,5.39,0,0,1,1.7,1.42,4.56,4.56,0,0,1,.92,1.78,16.2,16.2,0,0,1,.53,2.72c.12,1,.2,2.16.25,3.37s.08,2.49.08,3.81S205.57,25.64,205.54,26.86Z"/></g></g></svg>