<?xml version="1.0" encoding="utf-8"?>
<!-- Generator: Adobe Illustrator 21.0.2, SVG Export Plug-In . SVG Version: 6.00 Build 0)  -->
<svg version="1.1" id="Layer_1" xmlns="http://www.w3.org/2000/svg" xmlns:xlink="http://www.w3.org/1999/xlink" x="0px" y="0px"
	 viewBox="0 0 234 90" style="enable-background:new 0 0 234 90;" xml:space="preserve">
<style type="text/css">
	.st0{fill:#696A6D;}
	.st1{fill:none;}
	.st2{fill:#F15D2A;}
</style>
<g>
	<path class="st0" d="M1.8,63.5v8.2c0,11.9,6.2,11.9,9.6,11.9c1.2,0,4.2,0,6.3-2.2c1.5-1.6,2.3-3.9,2.3-7.1c0-0.4-0.3-0.7-0.7-0.7
		h-3.3c-0.4,0-0.6,0.3-0.7,0.6c-0.1,4.8-2.7,5.5-4.2,5.5c-2.5,0-4.8-0.6-4.8-7.6v-7.8c0-4.3,0.6-5.4,0.7-5.7c0,0,0.1-0.1,0.1-0.1
		l0-0.1c0.1-0.3,1.2-2,4-2c0.4,0,2.2,0.2,3,1.1c0.5,0.6,0.8,1.8,0.8,3.5l0,0.3c0,0.2,0.1,0.3,0.2,0.5c0.1,0.1,0.3,0.2,0.5,0.2h3.3
		c0.4,0,0.6-0.3,0.6-0.6l0-0.9c0-2.6-0.6-4.4-1.8-5.7c-1.3-1.4-3.4-2.1-6.2-2.1C4.8,52.6,1.8,56,1.8,63.5z"/>
	<path class="st0" d="M23.4,67.7L23.4,67.7c0,0.2,0.1,0.4,0.2,0.5c0.1,0.1,0.3,0.2,0.5,0.2h3c0.2,0,0.4-0.1,0.5-0.2
		c0.1-0.1,0.2-0.3,0.2-0.5l0-0.2c0-0.8,0.2-1.5,0.7-2c0.5-0.5,1.2-0.8,2.2-0.8c1,0,1.7,0.2,2.2,0.7c0.8,0.8,0.9,2.1,0.9,3.4
		c0,0,0,0.7,0,0.8c-3.3-0.1-6.9,0.2-9,2.2c-1.1,1.1-1.7,2.6-1.7,4.5c0,4.8,1.9,7.1,5.9,7.1c2.2,0,3.8-0.8,4.8-2.5c0,0.4,0,1.5,0,1.5
		c0,0.4,0.3,0.7,0.7,0.7h3c0.2,0,0.4-0.1,0.5-0.2c0.1-0.1,0.2-0.3,0.1-0.5c-0.2-1.7-0.4-3.2-0.4-4.5v-9.8c0-4.4-2.3-6.5-7-6.5
		C25.9,61.6,23.6,63.5,23.4,67.7z M26.7,76.7c0-3.4,2.8-3.7,6.4-3.7c0,0,0.2,0,0.3,0c0,0.1,0,0.7,0,0.7c0,2.6-0.5,4.4-1.5,5.4
		c-0.6,0.6-1.4,1-2.4,1C27.8,80,26.7,78.7,26.7,76.7z"/>
	<path class="st0" d="M51.4,61.6L51.4,61.6c-2.7,0-4.4,0.5-5.7,2.5c0-0.4,0-1.5,0-1.5c0-0.4-0.3-0.7-0.7-0.7h-2.8
		c-0.4,0-0.7,0.3-0.7,0.7v19.8c0,0.4,0.3,0.7,0.7,0.7H45c0.4,0,0.7-0.3,0.7-0.7V70.7c0-3.4,1.4-5.2,4.2-5.2c0,0,1.3,0.1,1.3,0.1l0,0
		l0.1,0c0.2,0,0.4,0,0.5-0.2c0.1-0.1,0.2-0.3,0.2-0.5v-2.8c0-0.2-0.1-0.3-0.2-0.5C51.7,61.6,51.5,61.6,51.4,61.6z"/>
	<path class="st0" d="M45.1,65.3L45.1,65.3L45.1,65.3z"/>
	<path class="st0" d="M55.6,53.2c-0.4,0-0.7,0.3-0.7,0.7v28.6c0,0.4,0.3,0.7,0.7,0.7h2.8c0.4,0,0.7-0.3,0.7-0.7c0,0,0-0.8,0-1.2
		c1.2,1.5,2.5,2.2,4.4,2.2c3.2,0,7-1.2,7-10.6c0-6-0.5-11.3-7.1-11.3c-1.7,0-3.1,0.7-4.2,2c0-0.4,0-9.7,0-9.7c0-0.4-0.3-0.7-0.7-0.7
		H55.6z M60.4,79.3L60.4,79.3C59,77.9,59,74.7,59,72.4l0-0.7c0-3.3,0.4-6.7,3.5-6.7c3.1,0,3.7,2.4,3.7,7.9c0,3.8-0.3,7.1-3.8,7.1
		C61.5,80,60.9,79.8,60.4,79.3z"/>
	<path class="st0" d="M73.3,72.8c0,9.8,4.2,10.7,8.1,10.7s8.1-0.8,8.1-10.7c0-5.9-0.6-11.3-8.1-11.3C73.9,61.6,73.3,66.9,73.3,72.8z
		 M77.5,71.4c0-5.3,1.6-6.4,3.9-6.4c2.3,0,3.9,1.1,3.9,6.4c0,6.7-0.9,8.6-3.9,8.6C78.4,80,77.5,78.1,77.5,71.4z"/>
	<path class="st0" d="M97,64c0-0.4,0-1.4,0-1.4c0-0.4-0.3-0.7-0.7-0.7h-2.9c-0.2,0-0.4,0.1-0.5,0.2c-0.1,0.1-0.2,0.3-0.2,0.5
		c0.1,1.5,0.2,2.8,0.2,3.9v15.9c0,0.4,0.3,0.7,0.7,0.7h2.7c0.4,0,0.7-0.3,0.7-0.7V70.6c0-3.9,1.2-5.6,3.8-5.6c2.2,0,3.2,1.1,3.2,3.6
		v13.8c0,0.4,0.3,0.7,0.7,0.7h2.7c0.4,0,0.6-0.3,0.6-0.7V68.6c0-4.9-1.7-7-5.8-7C99.7,61.6,98.2,62.3,97,64z"/>
	<path class="st0" d="M122.9,53.2c-0.4,0-0.7,0.3-0.7,0.7v28.6c0,0.4,0.3,0.7,0.7,0.7h3.2c0.4,0,0.7-0.3,0.7-0.7c0,0,0-12.5,0-12.7
		c0.2,0,9.5,0,9.5,0c0.4,0,0.7-0.3,0.7-0.7v-2.7c0-0.4-0.3-0.7-0.7-0.7c0,0-9.3,0-9.5,0c0-0.2,0-8.4,0-8.6c0.2,0,10.1,0,10.1,0
		c0.4,0,0.6-0.3,0.6-0.7v-2.7c0-0.4-0.3-0.7-0.6-0.7H122.9z"/>
	<path class="st0" d="M141.8,53.2c-0.4,0-0.7,0.3-0.7,0.7v3c0,0.4,0.3,0.7,0.7,0.7h3.2c0.4,0,0.7-0.3,0.7-0.7v-3
		c0-0.4-0.3-0.7-0.7-0.7H141.8z M142,62c-0.4,0-0.7,0.3-0.7,0.7v19.8c0,0.4,0.3,0.7,0.7,0.7h2.7c0.4,0,0.7-0.3,0.7-0.7V62.6
		c0-0.4-0.3-0.7-0.7-0.7H142z"/>
	<path class="st0" d="M162.6,62c-0.3,0-0.6,0.2-0.6,0.5c0,0-3.9,13.7-4.5,15.9c-0.2-0.6-4.2-15.9-4.2-15.9c-0.1-0.3-0.3-0.5-0.6-0.5
		h-3.1c-0.2,0-0.4,0.1-0.5,0.3c-0.1,0.2-0.2,0.4-0.1,0.6l5.9,19.8c0.1,0.3,0.3,0.5,0.6,0.5h3.9c0.3,0,0.5-0.2,0.6-0.5l6.2-19.8
		c0.1-0.2,0-0.4-0.1-0.6c-0.1-0.2-0.3-0.3-0.5-0.3H162.6z"/>
	<path class="st0" d="M167.5,72.8c0,9.8,4.2,10.7,8.1,10.7c4.6,0,7.3-2.4,7.4-6.7c0-0.2-0.1-0.3-0.2-0.5c-0.1-0.1-0.3-0.2-0.5-0.2
		h-3.1c-0.3,0-0.6,0.3-0.6,0.6c-0.2,2-1.4,3.3-3.2,3.3c-1.9,0-3.6-0.5-3.7-6.1c0.2,0,10.8,0,10.8,0c0.4,0,0.7-0.3,0.7-0.7v-1.5
		c0-7.6-2-10.3-7.6-10.3C168.1,61.6,167.5,66.9,167.5,72.8z M175.3,64.8c2,0,3.6,0.5,3.7,5.9c-0.2,0-7,0-7.2,0
		C172,65.5,173.6,64.8,175.3,64.8z"/>
	<path class="st1" d="M215.7,40.2h-23.8c-1.1,0-1.3,0.5-0.4,1.2l10.6,7.7c0.9,0.7,2.4,0.7,3.3,0l10.6-7.7
		C217.1,40.8,216.9,40.2,215.7,40.2z"/>
	<path class="st1" d="M221,29c-0.4-1.1-1.6-1.9-2.7-1.9h-20.9c-1.1,0-1.8-0.9-1.4-2l0.9-2.9c0.3-1.1,1.5-2,2.7-2h16.5
		c1.1,0,1.8-0.9,1.4-2l-0.9-2.8c-0.3-1.1-1.6-2-2.7-2h-20.1c-1.1,0-2.4,0.9-2.7,2l-5.3,16.4c-0.4,1.1,0.3,2,1.4,2h33.3
		c1.1,0,1.8-0.9,1.4-2L221,29z"/>
	<path class="st2" d="M230.3,36.5l-8.7-26.8c-0.5-1.5-2.2-2.7-3.8-2.7h-28.2c-1.6,0-3.3,1.2-3.8,2.7l-8.7,26.8
		c-0.5,1.5,0.2,3.5,1.5,4.4l22.8,16.6c1.3,0.9,3.4,0.9,4.7,0l22.8-16.6C230.2,40,230.8,38,230.3,36.5z M216.1,41.4l-10.6,7.7
		c-0.9,0.7-2.4,0.7-3.3,0l-10.6-7.7c-0.9-0.7-0.7-1.2,0.4-1.2h23.8C216.9,40.2,217.1,40.8,216.1,41.4z M220.5,33.9h-33.3
		c-1.1,0-1.8-0.9-1.4-2l5.3-16.4c0.3-1.1,1.6-2,2.7-2h20.1c1.1,0,2.3,0.9,2.7,2l0.9,2.8c0.4,1.1-0.3,2-1.4,2h-16.5
		c-1.1,0-2.3,0.9-2.7,2l-0.9,2.9c-0.3,1.1,0.3,2,1.4,2h20.9c1.1,0,2.3,0.9,2.7,1.9l0.9,2.9C222.3,33,221.6,33.9,220.5,33.9z"/>
</g>
</svg>
