<?xml version="1.0" encoding="utf-8"?>
<!-- Generator: Adobe Illustrator 18.1.1, SVG Export Plug-In . SVG Version: 6.00 Build 0)  -->
<svg version="1.1" id="Layer_1" xmlns="http://www.w3.org/2000/svg" xmlns:xlink="http://www.w3.org/1999/xlink" x="0px" y="0px"
	 viewBox="0 0 1920 1080" enable-background="new 0 0 1920 1080" xml:space="preserve">
<g>
	<path fill="#00237E" d="M944.5,527.2v24.2h-5.4v-2.5c-1,1.3-3.7,2.8-6.9,2.8c-6.9,0-12.2-5.1-12.2-12.4c0-7.3,5.2-12.4,12.2-12.4
		c3.2,0,5.9,1.5,6.9,2.8v-2.5H944.5z M932.3,532c-4,0-7.1,3.3-7.1,7.3c0,4,3.1,7.3,7.1,7.3c3.9,0,6.9-3.3,6.9-7.3
		C939.2,535.3,936.2,532,932.3,532"/>
	<path fill="#00237E" d="M952.3,544.1c0.3,1.6,1.7,2.6,3.1,2.6c1.8,0,3.1-1.1,3.1-3c0-2.7-2.4-2.9-4.8-3.6c-2.4-0.7-5-2.6-5-6.5
		c0-3.9,3-6.7,6.7-6.7c2.7,0,4.9,1.4,6.2,3.7l-3.7,2.7c-0.4-1-1.2-1.6-2.1-1.6c-1.3,0-1.9,1-1.9,1.9c0,2.1,2.7,2.1,5.3,3.1
		c2.5,0.9,4.7,2.8,4.7,6.9c0,4.8-3.5,8.1-8.4,8.1c-4.8,0-8-3.3-8.3-7.6H952.3z"/>
	<path fill="#00237E" d="M971.7,527.2v2.5c1.6-1.5,3.9-2.8,7.1-2.8c7.2,0,12,4.8,12,12.4c0,7.6-4.8,12.4-12,12.4
		c-3,0-5.6-1.2-7.1-2.8v14.6l-5.3,0.6v-36.9H971.7z M978.6,546.6c4.2,0,7-3.1,7-7.3c0-4.2-2.8-7.3-7-7.3c-4.2,0-7,3.1-7,7.3
		C971.6,543.5,974.4,546.6,978.6,546.6"/>
	<path fill="#00237E" d="M1020.2,527.2h5.3v2.5c1.2-1.6,2.9-2.8,6.3-2.8v5.1h-0.5c-3.4,0-5.8,2.4-5.8,6v13.4h-5.3V527.2z"/>
	<path fill="#00237E" d="M913.7,540.7c-1.9,3.6-5.4,5.6-9.6,5.6c-3.1,0-6-1.2-8.1-3.5c-2-2.2-3.3-5.2-3.3-8.5c0-3.3,1.3-6.3,3.3-8.5
		c2-2.2,5-3.5,8.1-3.5c3.1,0,5.1,1,6.6,2.2c1.3,1,2.9,2.1,5.5,2.1c4.7,0,6.7-3.8,7.1-5.9l-5.1-1.1c0,0.2-0.4,1.7-2,1.7
		c-0.7,0-1.1-0.3-2.3-1.1c-1.9-1.4-4.4-3.3-9.9-3.3c-9.7,0-17.1,7.8-17.1,17.4c0,9.6,7.5,17.4,17.1,17.4c6.1,0,11.9-3.4,14.5-8.3
		L913.7,540.7z"/>
	<path fill="#00237E" d="M998.3,541.2c0.6,3.1,3.3,5.5,6.8,5.5c2.8,0,4.8-1.1,5.6-2.6h6.3c-1.5,4.4-6.2,7.6-11.9,7.6
		c-7,0-12.5-5.5-12.5-12.4c0-6.9,5.4-12.4,12.3-12.4c6.9,0,12.3,5.5,12.3,12.4c0,0.6,0,1.3-0.1,1.8H998.3z M998.5,536.4h12.9
		c-0.8-2.5-3.4-4.6-6.4-4.6C1001.9,531.8,999.3,533.9,998.5,536.4"/>
</g>
</svg>
