<?xml version="1.0" encoding="utf-8"?>
<!-- Generator: Adobe Illustrator 22.0.1, SVG Export Plug-In . SVG Version: 6.00 Build 0)  -->
<svg version="1.1" id="Layer_1" xmlns="http://www.w3.org/2000/svg" xmlns:xlink="http://www.w3.org/1999/xlink" x="0px" y="0px"
	 viewBox="0 0 1280 1024" style="enable-background:new 0 0 1280 1024;" xml:space="preserve">
<style type="text/css">
	.st0{fill:#DB602A;}
	.st1{fill:#FFFFFF;}
</style>
<title>Artboard 1</title>
<path class="st0" d="M480.8,473.6c0-28.8-21.2-53.5-54-53.5h-73l9.6,25.4L410,581.6h16.6l-19.3-54.5h19.3l34.4,54.5h18.2l-36.2-57
	C466.3,518.2,480.8,497.4,480.8,473.6z M426.8,512.9h-24.6l-27.8-78.5h52.3c23.3,0,38.1,18,38.1,39.2S450.1,512.9,426.8,512.9
	L426.8,512.9z"/>
<path class="st0" d="M271.1,432.5c33.2,0,53.5,18.9,59.5,43.6h16.4c-6.5-32.5-32.1-57.9-77.8-57.9c-50.5,0-81.5,40.4-81.5,84
	c0,45.2,31.9,84.5,84.5,84.5c37.6,0,66-22.2,74.8-51h-17.3c-7.6,21.2-30.2,36.7-55.6,36.7c-44.5,0-70.1-32.3-70.1-70.2
	C204,466,228.7,432.5,271.1,432.5z"/>
<polygon class="st0" points="708.1,420.1 661.5,556.3 651.8,581.7 667.5,581.7 724.7,420.1 "/>
<polygon class="st0" points="615.9,420.1 599.3,420.1 647,554.9 654.4,533.2 "/>
<polygon class="st0" points="554.4,567.3 532.2,504.7 601.2,504.7 596.3,490.4 527.2,490.4 507.2,434.1 575,434.1 570,419.8 
	494,419.8 494.1,420.1 486.6,420.1 496.2,445.5 542.9,581.6 543.7,581.6 559.5,581.6 626.1,581.6 621.2,567.3 "/>
<polygon class="st0" points="750.3,420.1 760,445.5 806.6,581.6 823.2,581.6 766,420.1 "/>
<polygon class="st0" points="697.8,581.6 714.4,581.6 752.9,468.5 745.5,446.9 "/>
<polygon class="st0" points="1087.3,567.3 1086.9,567.3 1037,567.3 1020.6,567.3 998.4,504.7 1017.2,504.7 1067,504.7 1067.4,504.7 
	1062.5,490.4 1062.1,490.4 1012.2,490.4 993.3,490.4 973.4,434.1 994.8,434.1 1040.7,434.1 1041.1,434.1 1036.2,419.8 1035.8,419.8 
	989.7,419.8 960.2,419.8 960.3,420.1 952.8,420.1 952.4,420.1 962,445.5 1008.6,581.6 1009,581.6 1009.8,581.6 1025.2,581.6 
	1025.6,581.6 1042.1,581.6 1091.8,581.6 1092.2,581.6 "/>
<polygon class="st0" points="952.8,567.3 900.7,420.1 885,420.1 894.7,445.5 941.3,581.6 941.7,581.6 957.9,581.6 984.9,581.6 
	980,567.3 "/>
<polygon class="st0" points="885.5,567.3 833.3,420.1 817.7,420.1 827.3,445.5 873.9,581.6 875.5,581.6 890.5,581.6 918.7,581.6 
	913.8,567.3 "/>
<path class="st1" d="M424.9,365.7c19-30.4,43.9-56.6,73.3-77l0.9-0.6l0.9,0.6c11.6,7.2,23.8,13.3,36.5,18.3l1.8,0.7l-1.1,1.7
	c-11.2,17.7-20.5,36.6-27.6,56.4h5.9c7.6-20.2,16.6-38.8,27.3-55l0.7-1.1l1.2,0.4c30.5,10.8,65.2,16.8,100.4,17.4h1.6v38.3h5.7
	v-38.3h1.6c35.7-0.4,70.5-6.1,100.9-16.7l1.2-0.4l0.7,1.1c10.5,16.1,19.4,34.4,26.9,54.4h5.9c-7.1-19.5-16.2-38.2-27.3-55.7
	l-1.1-1.7l1.9-0.7c12.9-4.9,25.2-11,37-18.2l0.9-0.6l0.9,0.6c29,20.3,53.6,46.3,72.5,76.2h6.3c-48.6-79.5-135.6-130.1-231.1-130.1
	c-94.5-0.2-182.3,49.2-231.1,130.1H424.9z M702.6,246.6c32.5,6.6,63.4,19.3,91.2,37.4l2.2,1.4l-2.3,1.3c-11,6.4-22.5,11.9-34.5,16.3
	l-1.2,0.5l-0.7-1c-16.4-23.6-35.2-41.4-55.8-52.8L702.6,246.6z M654.1,241.4c35.6,1.6,70.2,23.7,97.4,62.1l1.2,1.8l-2.1,0.7
	c-29.5,9.9-63,15.4-96.7,15.7h-1.6v-80.4L654.1,241.4z M646.7,241.3l0,80.4H645c-33.7-0.5-67-6.2-96.2-16.2l-2.1-0.7l1.3-1.8
	c27.5-38.5,61-59.8,96.8-61.5L646.7,241.3z M506.4,283.2c27.5-17.7,58-30.2,90.1-36.6l1.1,3c-20.4,11.3-39,28.8-55.2,52.2l-0.7,1
	l-1.2-0.5c-11.8-4.5-23.2-10-34-16.4l-2.2-1.4L506.4,283.2z"/>
<path class="st1" d="M874.2,638.8c-19,30.4-43.9,56.6-73.3,77l-0.9,0.6l-0.9-0.6c-11.6-7.2-23.8-13.3-36.5-18.3l-1.8-0.7l1.1-1.7
	c11.2-17.7,20.5-36.6,27.6-56.4h-5.9c-7.6,20.2-16.6,38.8-27.3,55l-0.7,1.1l-1.2-0.4c-30.5-10.8-65.2-16.8-100.4-17.4h-1.6v-38.3
	h-5.7V677H645c-35.7,0.3-70.5,6.1-100.9,16.7l-1.2,0.4l-0.7-1.1c-10.9-17.1-19.9-35.3-26.9-54.4h-5.8c7.1,19.5,16.2,38.2,27.3,55.7
	l1.1,1.7l-1.9,0.7c-12.9,4.9-25.2,11-37,18.2l-0.9,0.6l-0.9-0.6c-29-20.3-53.6-46.3-72.5-76.2h-6.3C467,718.3,554,768.9,649.5,768.9
	c94.5,0.2,182.3-49.2,231.1-130.1H874.2z M596.5,757.9c-32.5-6.6-63.4-19.3-91.2-37.4l-2.2-1.4l2.3-1.3c11-6.4,22.6-11.9,34.5-16.3
	l1.2-0.4l0.7,1c16.4,23.7,35.2,41.4,55.8,52.8L596.5,757.9z M645,763c-35.6-1.7-70.2-23.7-97.4-62.1l-1.2-1.8l2.1-0.7
	c29.5-9.9,62.9-15.4,96.6-15.7h1.6v80.4L645,763z M652.4,763.1v-80.3h1.7c33.7,0.5,67,6.2,96.2,16.2l2.1,0.7l-1.3,1.8
	c-27.5,38.6-61,59.8-96.9,61.6L652.4,763.1z M792.7,721.2c-27.5,17.7-58,30.2-90.1,36.6l-1.1-3c20.4-11.3,39-28.8,55.2-52.2l0.7-1
	l1.2,0.4c11.8,4.5,23.2,10,34,16.4l2.2,1.3L792.7,721.2z"/>
<path class="st1" d="M354.3,652.5l-27,4.9l-1.5-2.9l24.7-25.9l2.1,4.1l-19.3,19.6l27-4.8l1.5,3l-19.4,19.3l27.2-4.5l2.1,4.1
	l-35.4,5.3l-1.5-2.9L354.3,652.5z"/>
<path class="st1" d="M361.2,683.6c7.5-5.4,18.2-5,24.7,3.8s3.3,19.2-4.1,24.6s-18.3,5-24.7-3.8S353.8,689,361.2,683.6z M379,708.2
	c5.8-4.2,8.3-12,3.6-18.5s-13-6.6-18.7-2.4s-8.3,12.1-3.6,18.5S373.2,712.4,379,708.2z"/>
<path class="st1" d="M401.9,709.5l8,8.7c4.4,4.5,4.3,11.6-0.2,16c-0.1,0.1-0.2,0.2-0.4,0.3c-3.4,3.4-8.7,4.2-13,1.9l-3.6,13.1
	l-3.4-3.7l3.3-12.3l-4.7-5.1l-7.9,7.3l-3-3.2L401.9,709.5z M406.4,731.4c3-2.8,3.6-7.2,0.6-10.5l-5.1-5.5l-11,10.3l5.1,5.5
	C399,734.4,403.4,734.1,406.4,731.4L406.4,731.4z"/>
<path class="st1" d="M416.5,765.8l-2.7,3l-11.5-10.4l22.7-25.2l3.3,3l-20,22.2L416.5,765.8z"/>
<path class="st1" d="M452.7,756.4c9,6.6,9.2,17.1,4.2,24s-15.1,9.9-24.1,3.3l-8.4-6.2l20-27.3L452.7,756.4z M445.4,756l-15.3,20.9
	l4.9,3.6c5.8,4.2,13.9,2.9,18.1-2.8s2.9-13.9-2.8-18.1L445.4,756z"/>
<path class="st1" d="M503.7,795.6L485,815.8l-3-1.4l4.1-35.6l4.2,2l-3.6,27.4l18.8-20.2l3,1.4l-3.8,27.3l18.9-20.1l4.2,2l-25,25.7
	l-2.9-1.4L503.7,795.6z"/>
<path class="st1" d="M536.4,800.7l4.3,1.5l-11.2,32l-4.3-1.5L536.4,800.7z"/>
<path class="st1" d="M561.8,808.4c10.9,2.8,15,12.4,12.9,20.7s-10.3,14.9-21.2,12.2l-10.1-2.5l8.2-32.9L561.8,808.4z M554.9,810.8
	l-6.3,25.2l5.9,1.5c6.9,2,14.1-1.9,16.1-8.8c2-6.9-1.9-14.1-8.8-16.1c-0.3-0.1-0.7-0.2-1-0.3L554.9,810.8z"/>
<path class="st1" d="M592.9,819l-1.5,11l14.5,1.9l-0.5,3.9l-14.5-2l-1.5,10.8l14.5,2l-0.5,3.9l-18.8-2.5l4.5-33.5l18.8,2.5l-0.5,3.9
	L592.9,819z"/>
<path class="st1" d="M655.5,825.8l-7,26.7l-3.3,0.2l-13.1-33.5l4.6-0.2l9.7,26l7-26.7l3.3-0.1l9.5,25.9l7.3-26.6l4.6-0.2l-10,34.5
	l-3.2,0.2L655.5,825.8z"/>
<path class="st1" d="M691.5,818.5l2,10.9l14.3-2.6l0.7,3.9l-14.3,2.6l1.9,10.7l14.3-2.6l0.7,3.9l-18.7,3.4l-6-33.2l18.7-3.3l0.7,3.9
	L691.5,818.5z"/>
<path class="st1" d="M716.4,809.4l11.1-3.2c7.9-2.2,11.3,2.2,12.4,5.9c1,3.5-0.5,7.2-3.7,9c2.5-0.6,6.9,1.1,8.2,5.7
	c1.1,3.7,0.4,9.6-7.5,11.9l-11.2,3.2L716.4,809.4z M731.6,820.4c4.2-1.2,4.7-4.6,4.1-6.7s-2.8-4.8-7.2-3.6l-6.9,2l3,10.3
	L731.6,820.4z M725.8,826.3l3.1,10.7l7.1-2.1c4.3-1.2,4.8-4.5,4.1-7c-0.8-2.9-3.9-4.7-6.8-3.9c-0.1,0-0.2,0.1-0.3,0.1L725.8,826.3z"
	/>
<path class="st1" d="M775.9,813.4c2,4.2,6,5.7,10.1,3.7c3.5-1.6,5.2-4.8,3.7-8c-1.8-3.7-5.4-3.3-8.4-2.9c-6.3,0.8-11.6,1.3-14.5-4.9
	c-2.2-4.9,0.3-10.1,5.8-12.6s11.3-0.7,14,5l-4,1.8c-1.7-3.5-4.8-4.8-8.2-3.2s-4.9,4.3-3.6,7.2c1.5,3.3,4.8,3.2,8.1,2.7
	c5.5-0.6,11.8-1.3,14.5,4.7s-0.3,11.4-6.2,14.1s-12.5,0.9-15.4-5.7L775.9,813.4z"/>
<path class="st1" d="M798.4,780.8l5.6,9.6l12.6-7.4l2,3.4l-12.6,7.4l5.5,9.4l12.6-7.4l2,3.4l-16.4,9.6l-17.2-29.3L809,770l2,3.4
	L798.4,780.8z"/>
<path class="st1" d="M818.6,763.8l9.6-7c5.1-3.8,12.3-2.8,16.1,2.3c2.9,3.9,3.1,9.1,0.4,13.1l12.5,5l-4,3l-11.8-4.7l-5.6,4.2
	l6.4,8.6l-3.5,2.6L818.6,763.8z M840.8,761.8c-2.4-3.3-6.7-4.4-10.3-1.8l-6,4.4l9,12.1l6-4.5C843,769.5,843.2,765,840.8,761.8
	L840.8,761.8z"/>
<path class="st1" d="M876.7,760.7l-2.4,2.1l-31.8-17.2l3.5-3.1l24.6,13.8L859,730.8l3.5-3.1L876.7,760.7z"/>
<path class="st1" d="M867.9,721.8l3.1-3.3l24.7,23.1l-3.1,3.3L867.9,721.8z"/>
<path class="st1" d="M917.5,698.9c3.9,5.2,4.1,13-0.9,19.3c-6.8,8.7-17.4,8.9-24.9,3.1c-7.3-5.7-9.9-16-3.4-24.3
	c6-7.8,13.7-8.6,20-5.2l-2.9,3.7c-4.5-2.2-9.9-1.4-13.8,3.6c-5.1,6.6-2.9,14.4,2.7,18.7c5.9,4.6,13.9,4.5,19.3-2.4
	c2.9-3.7,3.1-8.7,0.7-12.7L917.5,698.9z"/>
<path class="st1" d="M909.9,674.5l9.5,5.8l7.6-12.5l3.4,2.1l-7.6,12.5l9.3,5.7l7.6-12.5l3.4,2.1l-10,16.2l-29-17.7l9.9-16.2l3.4,2.1
	L909.9,674.5z"/>
<path class="st1" d="M941.8,657.3c4.2,2.1,8.2,0.6,10.2-3.5c1.7-3.5,1-7-2.2-8.5c-3.7-1.8-6.3,0.8-8.3,3.1
	c-4.4,4.6-8.2,8.4-14.3,5.4c-4.8-2.3-6.2-8-3.5-13.4s8.3-7.8,14-5l-1.9,4c-3.5-1.7-6.8-0.7-8.4,2.7s-1,6.5,1.8,7.8
	c3.3,1.6,5.8-0.6,8-3.1c3.8-3.9,8.3-8.5,14.2-5.6s7,9,4.1,14.8s-9,8.6-15.5,5.4L941.8,657.3z"/>
<path class="st1" d="M259.4,385.4l-6.3-2c23.1-74.5,67.4-140.7,127.3-190.6l4.2,5C325.7,247,282.2,312.1,259.4,385.4z"/>
<path class="st1" d="M1020.7,385.4C968.7,217.6,815.8,104.9,640,104.9c-23.1,0-46.2,2-69,5.9c-32.6,5.7-30.3,3.5-30.3,3.5
	s21.3-8.6,25.7-9.4c24.3-4.4,48.9-6.7,73.6-6.6c178.6,0,334.1,114.6,386.9,285.1L1020.7,385.4z"/>
<path class="st1" d="M396.3,165.1c0.1,0.6,0.3,1.3,0.6,1.8l-9.4,6.8c-0.3-0.6-0.5-1.2-0.6-1.8L396.3,165.1z"/>
<path class="st1" d="M514,137.5c0.9-0.4,1.3-1.5,0.8-2.4c-0.4-0.8-1.3-1.2-2.1-0.9l-0.2,0.1l-84.2,41.1c0.5,1.1,1.1,2.1,1.5,3.2
	L514,137.5z"/>
<path class="st1" d="M522.3,105.7c0.8-0.5,1-1.6,0.5-2.5c-0.5-0.7-1.4-1-2.2-0.7l-0.2,0.1l-97.7,63.7c0.5,0.7,1.2,1.8,2,2.9
	L522.3,105.7z"/>
<path class="st1" d="M471.1,95.5l-57.9,60.2c1,0.8,1.9,1.8,2.8,2.7l58-60.3c0.6-0.7,0.6-1.9-0.2-2.5c0,0,0,0-0.1-0.1
	c-0.7-0.6-1.7-0.7-2.5-0.2C471.3,95.4,471.2,95.5,471.1,95.5z"/>
<path class="st1" d="M391.9,188.4c6.6,9.2,14,15.3,16.5,13.5l12.8-9.3l1.3-0.9l0.4-0.3l4.1-2.9l0.4-0.3c2.6-1.9-0.9-10.7-7.5-19.9
	s-13.8-15.1-16.4-13.2l-4.7,3.4l-1.5,1.1l-12.8,9.3C382,170.6,385.3,179.2,391.9,188.4z M401.1,159.7L401.1,159.7l1.7-1.2
	c0.5,3.9,3.5,9.8,8.1,16.2s9.3,11.2,12.8,12.9l-16.9,12.2c-2-0.5-7.4-4.8-13.1-12.7s-8.1-14.4-7.9-16.4l9.6-6.9l0,0L401.1,159.7z"/>
<path class="st1" d="M294,730.9l-4.1,2.5l-9.9-16L315,696l2.8,4.5l-30.8,19L294,730.9z"/>
<path class="st1" d="M285.3,683.7c-11.3-22.2-20.6-45.3-27.6-69.2l-6.3,1.9c7.2,24.4,16.7,48.1,28.3,70.8L285.3,683.7z"/>
<path class="st1" d="M311.4,728.9c8.9-6.8,21.9-6.9,30,3.5s4.7,23-4.1,29.8s-22,6.8-30-3.6S302.6,735.7,311.4,728.9z M333.9,757.8
	c6.9-5.3,9.6-14.9,3.7-22.4s-15.9-7.4-22.8-2.1s-9.6,14.9-3.7,22.5S327.1,763.1,333.9,757.8L333.9,757.8z"/>
<path class="st1" d="M343.6,780.1c-4,3.9-4,9.1-0.1,13c3.3,3.4,7.6,3.9,10.7,0.9c3.6-3.5,1.6-7.5-0.1-10.7
	c-3.5-6.9-6.3-12.7-0.3-18.5c4.7-4.6,11.7-3.8,16.8,1.4s5.4,12.7,0,18l-3.7-3.8c3.4-3.3,3.6-7.5,0.4-10.7s-7-3.8-9.7-1.1
	c-3.2,3.1-1.7,6.8,0.2,10.4c3,6,6.3,12.9,0.6,18.5s-13.1,4.3-18.6-1.2s-6.1-13.8,0.2-20L343.6,780.1z"/>
<path class="st1" d="M396.9,844.2l2.1-6.3l-13.3-10l-5.5,3.7l-4.5-3.4l36-24.2l3.1,2.3l-13.3,41.2L396.9,844.2z M408,812.2
	L389.9,825l10.7,8L408,812.2z"/>
<path class="st1" d="M438.6,859.7l16.3-27.2l4.6,2.8l-21.1,35.2l-5.1-3.1l0.4-36.7l-16.3,27.2l-4.6-2.7l21.1-35.2l5.1,3.1
	L438.6,859.7z"/>
<path class="st1" d="M483.9,870.4l18.1,7.9l-2,4.4l-4-1.8c-5.3,8-14,11.2-24.4,6.7c-12.3-5.4-15-17.9-10.5-28s16-16.4,27.9-11.2
	c8.4,3.7,12.5,11.6,10.7,18.2l-4.9-2.1c0.8-4.3-2.1-9.2-7.7-11.7c-8.9-3.9-17.5,1.1-21,9s-1.8,17.4,8.1,21.7
	c7.3,3.2,13.4,0.5,16.6-4.8l-8.8-3.9L483.9,870.4z"/>
<path class="st1" d="M524.2,868.1l-3.9,12.8l16.9,5.2l-1.4,4.6l-16.9-5.2L515,898l16.9,5.2l-1.4,4.6l-22-6.7l12-39.1l22,6.7
	l-1.4,4.6L524.2,868.1z"/>
<path class="st1" d="M566.7,911.2l-1,4.7l-18.3-3.9l8.5-40l5.2,1.1l-7.5,35.4L566.7,911.2z"/>
<path class="st1" d="M590,883.2l-1.7,13.3l17.6,2.2l-0.6,4.8l-17.6-2.2l-1.6,13.1l17.6,2.2l-0.6,4.8l-22.9-2.9l5.1-40.7l22.9,2.9
	l-0.6,4.8L590,883.2z"/>
<path class="st1" d="M623.9,909.6c-0.1,5.6,3.5,9.3,9.1,9.4c4.8,0.1,8.2-2.5,8.3-6.8c0.1-5-4.1-6.5-7.7-7.7
	c-7.3-2.5-13.4-4.7-13.2-13c0.2-6.5,5.6-10.8,13-10.7s12.8,5.3,12.7,12.9l-5.3-0.2c0-4.7-2.7-7.8-7.3-7.9s-7.6,2.2-7.7,6
	c-0.1,4.5,3.6,6,7.5,7.3c6.3,2.2,13.6,4.8,13.4,12.8s-6.4,12.2-14.2,12.1s-14.1-5.6-13.9-14.4L623.9,909.6z"/>
<path class="st1" d="M661.3,914.8c2.9-0.1,5.1,2.3,5.2,5.7c0.3,6.5-3,8.9-8.4,9.2l-0.1-2.5c2.1-0.1,3.5-0.8,4.2-2
	c0.5-0.8,0.8-1.7,0.8-2.6c-0.4,0.3-0.9,0.5-1.3,0.5c-2.2,0.1-4.1-1.6-4.2-3.8c0-0.1,0-0.1,0-0.2
	C657.2,916.9,658.9,914.9,661.3,914.8C661.2,914.8,661.2,914.8,661.3,914.8z"/>
<path class="st1" d="M740.4,899.4c-0.6,8-6.7,15.2-16.4,17c-13.2,2.5-23.1-5.8-25.2-17.2c-2.1-11,3.8-22.5,16.4-24.9
	c11.7-2.2,19.5,3.2,22.5,11.3l-5.5,1.1c-2.3-5.7-8-9.2-15.5-7.8c-10,1.9-14.2,10.8-12.6,19.2c1.7,8.9,9.2,15.3,19.6,13.3
	c5.5-1,10.1-5.7,10.8-11L740.4,899.4z"/>
<path class="st1" d="M779,901.1l-3.9-5.4l-16,4.9l-0.2,6.7l-5.4,1.7l1.4-43.5l3.7-1.1l25.8,35.1L779,901.1z M759.4,873.2l-0.2,22.2
	l12.8-3.9L759.4,873.2z"/>
<path class="st1" d="M811.5,883.2l1.8,4.5l-17.4,7.1l-15.6-38.1l4.9-2l13.8,33.6L811.5,883.2z"/>
<path class="st1" d="M808.3,844.7l5-2.4l18,37.1l-5,2.4L808.3,844.7z"/>
<path class="st1" d="M833.4,837.2l7.4,12.7l15.3-8.9l2.4,4.2l-15.3,8.8l8.5,14.6l-4.6,2.7l-20.7-35.5l20-11.6l2.4,4.2L833.4,837.2z"
	/>
<path class="st1" d="M867.3,835.6c-6.7-8.9-6.4-21.9,4.2-29.8s23.1-4.3,29.8,4.7s6.3,22-4.2,29.8S873.9,844.5,867.3,835.6z
	 M896.8,813.8c-5.1-6.9-14.7-9.9-22.4-4.2s-7.8,15.7-2.6,22.6s14.7,9.9,22.5,4.2S901.9,820.6,896.8,813.8L896.8,813.8z"/>
<path class="st1" d="M897.5,786.1l10.5-9.9c5.4-5.4,14-5.3,19.4,0c0.1,0.1,0.3,0.3,0.4,0.5c4.2,4.2,5.1,10.5,2.5,15.8l15.9,4.2
	l-4.4,4.2l-14.9-3.9l-6.1,5.8l9,9.5l-3.9,3.6L897.5,786.1z M923.9,780.3c-3.4-3.6-8.8-4.3-12.6-0.7l-6.6,6.3l12.6,13.3l6.6-6.3
	C927.7,789.3,927.3,783.9,923.9,780.3L923.9,780.3z"/>
<path class="st1" d="M966.1,759.8l-24.3-20.5l3.5-4.1l31.4,26.5l-3.8,4.6l-36.2-6.3l24.3,20.5l-3.5,4.1L926.1,758l3.8-4.5
	L966.1,759.8z"/>
<path class="st1" d="M953,724.4l3.2-4.5l33.6,23.7l-3.2,4.5L953,724.4z"/>
<path class="st1" d="M1011,710.2l-6.5-1.4l-8.5,14.3l4.3,5l-2.9,4.8l-28-33.2l2-3.3l42.5,9L1011,710.2z M977.9,702.6l14.7,16.7
	l6.9-11.4L977.9,702.6z"/>
<path class="st1" d="M1004.3,680.4c10.5-21.3,19.2-43.4,25.9-66.1l-6.3-1.9c-6.8,22.9-15.5,45.2-26.2,66.6L1004.3,680.4z"/>
</svg>
