<!DOCTYPE svg PUBLIC "-//W3C//DTD SVG 20010904//EN" "http://www.w3.org/TR/2001/REC-SVG-20010904/DTD/svg10.dtd">
<svg version="1.0" xmlns="http://www.w3.org/2000/svg" width="309px" height="325px" viewBox="0 0 3090 3250" preserveAspectRatio="xMidYMid meet">
<!-- generated by www.vectorizer.io -->
<g id="layer1" fill="#dffe31" stroke="none">
 <path d="M1370 1761 c0 -4 59 -86 130 -181 76 -101 130 -181 130 -194 0 -21 -78 -150 -198 -328 -29 -42 -52 -80 -52 -83 0 -11 137 -5 152 8 27 21 258 383 258 403 0 10 -61 101 -136 202 l-135 182 -75 0 c-41 0 -74 -4 -74 -9z"/>
 </g>
<g id="layer2" fill="#fdfdfd" stroke="none">
 <path d="M2472 1978 c-9 -9 -12 -143 -12 -539 0 -290 -4 -530 -9 -533 -14 -9 -31 17 -161 239 -67 116 -133 220 -147 233 -20 19 -35 22 -96 22 -41 0 -79 -6 -88 -13 -8 -7 -75 -111 -148 -232 -74 -121 -147 -232 -162 -247 l-29 -28 -293 0 c-249 0 -296 2 -315 16 l-22 15 0 444 0 445 24 15 c21 14 57 16 245 13 122 -2 221 -2 221 0 0 15 -98 125 -117 133 -27 10 -472 13 -497 3 -14 -6 -16 -68 -16 -609 0 -541 2 -603 16 -609 29 -11 821 -7 846 5 14 6 77 99 167 245 80 129 151 239 158 245 7 6 19 9 26 6 8 -3 78 -111 156 -241 78 -130 152 -243 164 -251 27 -19 197 -21 215 -3 17 17 17 1209 0 1226 -7 7 -35 12 -63 12 -28 0 -56 -5 -63 -12z"/>
 </g>
<g id="layer3" fill="#333333" stroke="none">
 <path d="M2212 3238 c-9 -9 -12 -83 -12 -298 0 -273 -1 -288 -20 -305 -18 -17 -21 -17 -45 -1 -25 16 -25 17 -25 165 0 135 -2 151 -21 175 -26 33 -79 36 -109 6 -19 -19 -20 -33 -20 -206 l0 -186 -22 7 c-45 14 -326 18 -409 5 -377 -55 -722 -294 -900 -625 l-41 -76 -20 21 c-25 26 -60 23 -73 -8 -7 -17 -15 -21 -30 -17 -80 26 -99 12 -60 -45 31 -45 25 -65 -15 -56 -34 6 -50 -10 -47 -49 2 -29 0 -31 -73 -65 -16 -8 -17 -35 -5 -108 7 -39 5 -47 -24 -83 l-32 -40 17 -45 c9 -24 21 -47 25 -50 5 -2 4 -16 -1 -30 -6 -14 -10 -35 -10 -47 0 -12 -16 -44 -35 -71 -27 -38 -33 -55 -28 -77 4 -20 -2 -43 -18 -74 -20 -38 -22 -49 -13 -74 17 -44 4 -55 -75 -59 -68 -4 -71 -5 -71 -29 0 -25 0 -25 82 -22 l82 4 28 -40 c15 -22 27 -48 28 -57 0 -23 -44 -73 -96 -109 -49 -34 -57 -59 -19 -59 16 0 40 16 69 45 59 58 91 61 113 8 11 -28 12 -41 4 -53 -19 -25 -71 -134 -71 -147 0 -7 12 -13 26 -13 18 0 39 15 73 52 42 46 50 51 65 39 9 -7 16 -24 16 -37 0 -29 12 -36 42 -25 27 10 54 -1 80 -33 16 -20 18 -20 51 -4 33 16 36 16 53 -3 23 -25 38 -24 71 7 l27 25 27 -32 26 -33 13 23 c12 24 22 22 26 -6 2 -9 17 -27 33 -40 17 -14 31 -32 31 -41 0 -9 -18 -44 -41 -77 -37 -54 -40 -65 -36 -107 3 -37 12 -57 43 -92 32 -37 44 -44 66 -40 15 3 36 1 46 -5 23 -12 96 18 105 44 5 10 20 15 49 15 48 0 61 -7 71 -34 7 -16 14 -18 61 -12 45 5 56 3 71 -14 23 -25 50 -25 83 0 l25 20 22 -20 c26 -24 38 -25 99 -4 32 11 51 25 59 41 10 22 16 24 46 19 41 -6 61 7 61 40 0 15 6 24 15 24 8 0 15 -4 15 -10 0 -16 60 -12 66 5 4 9 19 15 36 15 112 0 361 80 498 160 308 180 539 512 592 848 l12 82 48 0 c41 0 48 3 48 19 0 10 -17 32 -37 49 -32 26 -36 32 -24 46 7 8 23 14 34 13 26 -2 36 35 15 60 -11 13 -7 20 25 48 44 38 46 61 10 122 l-26 45 18 53 18 53 -29 36 c-16 20 -32 36 -36 36 -5 0 -8 16 -8 36 0 30 -9 44 -58 92 -56 56 -78 88 -84 126 -2 14 -18 23 -57 33 -30 7 -62 12 -71 11 -10 -2 -41 26 -78 69 -34 39 -84 91 -112 114 l-50 42 0 341 c0 382 -1 386 -64 386 -64 0 -66 -7 -66 -292 0 -267 -3 -288 -44 -272 -14 5 -16 42 -17 348 -1 187 -4 352 -8 366 -5 18 -15 26 -36 28 -17 2 -36 -3 -43 -10z m386 -1260 c17 -17 17 -1209 0 -1226 -18 -18 -188 -16 -215 3 -12 8 -86 121 -164 251 -78 130 -148 238 -156 241 -7 3 -19 0 -26 -6 -7 -6 -78 -116 -158 -245 -90 -146 -153 -239 -167 -245 -25 -12 -817 -16 -846 -5 -14 6 -16 68 -16 609 0 541 2 603 16 609 25 10 470 7 497 -3 19 -8 117 -118 117 -133 0 -2 -99 -2 -221 0 -188 3 -224 1 -245 -13 l-24 -15 0 -445 0 -444 22 -15 c19 -14 66 -16 315 -16 l293 0 29 28 c15 15 88 126 162 247 73 121 140 225 148 232 9 7 47 13 88 13 61 0 76 -3 96 -22 14 -13 80 -117 147 -233 130 -222 147 -248 161 -239 5 3 9 243 9 533 0 396 3 530 12 539 7 7 35 12 63 12 28 0 56 -5 63 -12z m-944 -390 c75 -101 136 -192 136 -202 0 -20 -231 -382 -258 -403 -15 -13 -152 -19 -152 -8 0 3 23 41 52 83 120 178 198 307 198 328 0 13 -54 93 -130 194 -71 95 -130 177 -130 181 0 5 33 9 74 9 l75 0 135 -182z"/>
 <path d="M2 2918 c3 -152 3 -153 27 -156 63 -9 68 -2 135 183 6 15 16 -2 43 -75 20 -52 41 -98 47 -103 6 -4 29 -6 51 -5 l40 3 0 150 0 150 -27 3 c-35 4 -42 -20 -36 -133 l4 -84 -37 99 c-46 122 -45 120 -73 120 -31 0 -37 -9 -77 -112 l-34 -88 -5 98 -5 97 -28 3 -28 3 3 -153z"/>
 <path d="M405 3057 c-3 -7 -4 -76 -3 -152 l3 -140 100 0 100 0 0 25 c0 24 -3 25 -65 28 -74 3 -85 10 -76 46 6 25 10 26 72 26 62 0 65 1 62 23 -3 20 -10 23 -68 27 -64 5 -65 5 -65 35 l0 30 70 5 c67 5 70 6 70 30 0 25 -1 25 -98 28 -74 2 -99 0 -102 -11z"/>
 <path d="M720 2958 c0 -126 -5 -138 -58 -138 -30 0 -33 -2 -30 -27 l3 -28 115 0 115 0 3 28 c3 25 0 27 -30 27 -55 0 -57 6 -60 130 l-3 115 -27 3 -28 3 0 -113z"/>
 <path d="M907 3063 c-4 -3 -7 -71 -7 -150 0 -124 2 -144 16 -150 31 -12 49 11 52 66 l3 51 59 0 59 0 3 -51 c3 -55 21 -78 52 -66 15 6 16 24 14 154 -3 147 -3 148 -27 151 -31 5 -41 -12 -41 -75 l0 -53 -60 0 -60 0 0 49 c0 27 -3 56 -6 65 -6 16 -45 22 -57 9z"/>
 <path d="M1243 3058 c-33 -16 -46 -69 -41 -165 6 -109 18 -124 115 -130 48 -4 79 -1 105 10 45 19 52 45 47 171 -5 113 -13 120 -122 123 -46 2 -92 -2 -104 -9z m155 -65 c13 -34 7 -154 -9 -164 -20 -13 -93 -11 -107 3 -13 13 -17 159 -5 171 3 4 30 7 60 7 42 0 55 -4 61 -17z"/>
 <path d="M1518 3064 c-5 -4 -8 -71 -8 -150 0 -163 -6 -154 98 -154 150 0 178 31 169 179 -7 117 -16 125 -150 129 -56 2 -105 0 -109 -4z m176 -70 c11 -11 16 -35 16 -79 0 -81 -14 -97 -79 -93 l-46 3 -3 93 -3 92 50 0 c32 0 55 -6 65 -16z"/>
 <path d="M4 2637 c-2 -7 -3 -76 -2 -152 l3 -140 102 0 c93 0 105 2 125 23 19 19 23 35 27 104 4 107 -9 153 -51 167 -45 16 -197 14 -204 -2z m167 -57 c16 -9 19 -22 19 -85 0 -86 -11 -98 -83 -93 l-42 3 -3 79 c-2 44 -1 85 2 93 6 16 78 18 107 3z"/>
 <path d="M305 2637 c-3 -7 -4 -76 -3 -152 l3 -140 100 0 100 0 0 25 c0 24 -3 25 -70 30 -57 4 -70 8 -73 23 -7 33 17 47 80 47 56 0 59 1 56 23 -3 20 -10 23 -68 27 -64 5 -65 5 -65 35 l0 30 70 5 c67 5 70 6 70 30 0 25 -1 25 -98 28 -74 2 -99 0 -102 -11z"/>
 <path d="M556 2635 c-3 -9 -6 -74 -6 -145 0 -97 3 -130 14 -139 9 -8 46 -11 103 -9 86 3 88 3 88 28 0 24 -4 25 -65 30 -64 5 -65 5 -65 35 0 30 0 30 63 33 62 3 63 3 60 30 -3 26 -6 27 -65 30 l-62 3 -3 57 c-3 53 -5 57 -29 60 -17 2 -29 -3 -33 -13z"/>
 </g>

</svg>