<svg xmlns="http://www.w3.org/2000/svg" viewBox="0 0 137.1 33.35"><defs><style>.cls-1{fill:#231f20;}</style></defs><title>Asset 2</title><g id="Layer_2" data-name="Layer 2"><g id="Layer_1-2" data-name="Layer 1"><path class="cls-1" d="M31.11,2a22.19,22.19,0,0,0-2-1.74,1.09,1.09,0,0,0-.85-.2,83.58,83.58,0,0,1-12.5,1.11A83.5,83.5,0,0,1,3.24,0a1.08,1.08,0,0,0-.85.2A22.23,22.23,0,0,0,.37,2,1.06,1.06,0,0,0,0,2.68c0,.93,0,1.7,0,2.44S0,6.84.06,7.84A66.27,66.27,0,0,0,4,27.84a1.07,1.07,0,0,0,.3.44c3.18,2.77,8.12,5.06,11.46,5.06S24,31.06,27.2,28.28a1.07,1.07,0,0,0,.3-.44,66.27,66.27,0,0,0,3.92-20c0-1,.06-1.88.06-2.71s0-1.52,0-2.44A1.06,1.06,0,0,0,31.11,2ZM13.38,20.84l-.06.1c-1.25,2.22-3.27,2.5-5.54,1.6s-4.16-2.76-3.37-5.36c.75-2.34,4.4-1.39,6.09-1,2.38.59,4.19,2,2.92,4.54C13.47,20.66,13.49,20.64,13.38,20.84ZM27.1,19.22c-.58,2.37-2.95,3.61-5.29,3.86-2.15.22-4.05-1.86-4.13-4,0,.14,0,.27,0-.09,0-.1,0-.1,0-.07.07-2.53,3.8-3,5.68-3.17C25.84,15.51,27.79,16.36,27.1,19.22Z"/><path class="cls-1" d="M85.63,13,86,11a.88.88,0,0,0-.18-.7.82.82,0,0,0-.64-.31H80.33a.84.84,0,0,0-.82.71L76.69,27.24h0L76.3,29.7a.88.88,0,0,0,.18.7.82.82,0,0,0,.64.31h4.83a.84.84,0,0,0,.82-.71l2.82-16.51A3.55,3.55,0,0,0,85.63,13Z"/><path class="cls-1" d="M77.2,10.83A1.17,1.17,0,0,0,76,9.47a15.47,15.47,0,0,0-3.23.51A11.5,11.5,0,0,0,69,11.73a11,11,0,0,0-3,3.38,12.76,12.76,0,0,0-1.17,2.7c0-.26,0-.52,0-.78a13.92,13.92,0,0,0-.1-1.66,13.72,13.72,0,0,0-.72-3l-.77-2.12a.86.86,0,0,0-1.1-.51l-12,4.38a.86.86,0,0,0-.51,1.1L51.4,20a.86.86,0,0,0,1.1.51l5.34-1.94a6.83,6.83,0,1,1-4.3-8,.86.86,0,0,0,1.1-.51L56.4,5.26a.86.86,0,0,0-.51-1.1,13.69,13.69,0,0,0-4.68-.82h0A13.69,13.69,0,1,0,64,21.82l-1.29,7.52a1.17,1.17,0,0,0,1.15,1.36h4.83a1.17,1.17,0,0,0,1.15-1L71.52,20a4.1,4.1,0,0,1,1.12-2.45A3.5,3.5,0,0,1,75,16.83h.19a1.17,1.17,0,0,0,1.15-1Z"/><path class="cls-1" d="M136.8,9.86a1.18,1.18,0,0,0-.93-.39,15.48,15.48,0,0,0-3.23.51,11.49,11.49,0,0,0-3.71,1.75,11,11,0,0,0-3,3.38,12.7,12.7,0,0,0-1.15,2.62L127,4.87a1.17,1.17,0,0,0-1.15-1.36H121a1.17,1.17,0,0,0-1.15,1l-1.07,6.29a9.29,9.29,0,0,0-3.87-.83,11.22,11.22,0,0,0-10.33,7.64c.31-3-.33-5.12-1.92-6.27a9.67,9.67,0,0,0-5.78-1.79h0a13,13,0,0,0-6.1,1.89c-2,1.22-3.36,3.6-4,7.07l-1.9,11.1a.88.88,0,0,0,.18.7.82.82,0,0,0,.64.31h4.83a.84.84,0,0,0,.82-.71l2.07-12.1a2.81,2.81,0,0,1,1-1.93,3.14,3.14,0,0,1,1.87-.63,2.22,2.22,0,0,1,1.56.57c.13.12.51.47.3,1.7l-1.65,9.68c0,.14,0,.28,0,.41l-.36,2.13a.88.88,0,0,0,.18.7.82.82,0,0,0,.64.31h4.83a.84.84,0,0,0,.82-.71L104,21.87a9.19,9.19,0,0,0,9.23,8.83A11.29,11.29,0,0,0,124,21.1l0,0-1.41,8.27a1.16,1.16,0,0,0,1.15,1.36h4.83a1.17,1.17,0,0,0,1.15-1L131.4,20a4.1,4.1,0,0,1,1.12-2.45,3.5,3.5,0,0,1,2.37-.71h.19a1.17,1.17,0,0,0,1.15-1l.86-5A1.17,1.17,0,0,0,136.8,9.86ZM118.06,20.32a4.52,4.52,0,0,1-4.36,4.15A3.71,3.71,0,0,1,110,20.32a4.52,4.52,0,0,1,4.36-4.15A3.71,3.71,0,0,1,118.06,20.32Z"/><polygon class="cls-1" points="131.59 28.5 132.04 28.5 132.04 29.66 132.32 29.66 132.32 28.5 132.77 28.5 132.77 28.27 131.59 28.27 131.59 28.5"/><polygon class="cls-1" points="133.76 29.27 133.41 28.27 133.01 28.27 133.01 29.66 133.27 29.66 133.27 28.54 133.65 29.66 133.88 29.66 134.26 28.54 134.26 29.66 134.52 29.66 134.52 28.27 134.12 28.27 133.76 29.27"/></g></g></svg>