<?xml version="1.0" encoding="utf-8"?>
<!-- Generator: Adobe Illustrator 19.0.0, SVG Export Plug-In . SVG Version: 6.00 Build 0)  -->
<!DOCTYPE svg PUBLIC "-//W3C//DTD SVG 1.1//EN" "http://www.w3.org/Graphics/SVG/1.1/DTD/svg11.dtd" [
	<!ENTITY ns_extend "http://ns.adobe.com/Extensibility/1.0/">
	<!ENTITY ns_ai "http://ns.adobe.com/AdobeIllustrator/10.0/">
	<!ENTITY ns_graphs "http://ns.adobe.com/Graphs/1.0/">
	<!ENTITY ns_vars "http://ns.adobe.com/Variables/1.0/">
	<!ENTITY ns_imrep "http://ns.adobe.com/ImageReplacement/1.0/">
	<!ENTITY ns_sfw "http://ns.adobe.com/SaveForWeb/1.0/">
	<!ENTITY ns_custom "http://ns.adobe.com/GenericCustomNamespace/1.0/">
	<!ENTITY ns_adobe_xpath "http://ns.adobe.com/XPath/1.0/">
]>
<svg version="1.1" id="Layer_1" xmlns:x="&ns_extend;" xmlns:i="&ns_ai;" xmlns:graph="&ns_graphs;"
	 xmlns="http://www.w3.org/2000/svg" xmlns:xlink="http://www.w3.org/1999/xlink" x="0px" y="0px" width="130.9px" height="42px"
	 viewBox="25 20 130.9 42" style="enable-background:new 25 20 130.9 42;" xml:space="preserve">
<style type="text/css">
	.st0{fill:none;stroke:#5F53AE;stroke-width:2;stroke-linecap:round;stroke-miterlimit:10;}
	.st1{fill:#5F53AE;}
</style>
<metadata>
	<sfw  xmlns="&ns_sfw;">
		<slices></slices>
		<sliceSourceBounds  height="42" width="131" bottomLeftOrigin="true" x="0" y="0"></sliceSourceBounds>
	</sfw>
</metadata>
<g id="XMLID_118_">
	<circle id="XMLID_126_" class="st0" cx="46" cy="41" r="20"/>
	<path id="XMLID_125_" class="st0" d="M40.8,55.1C35.1,52.9,31,47.4,31,41c0-8.3,6.7-15,15-15c6.1,0,11.3,3.6,13.7,8.8"/>
	<path id="XMLID_124_" class="st0" d="M61,41c0,8.3-6.7,15-15,15c-0.3,0-0.6,0-0.9,0"/>
	<path id="XMLID_123_" class="st0" d="M59.7,34.8"/>
	<path id="XMLID_122_" class="st0" d="M36.4,38.1c1.2-4,4.9-7,9.2-7.2c5.7-0.2,10.4,4.3,10.4,10v0.4c0,4-4.2,7.7-7.8,6l0,0
		c-1.3-0.6-2.2-1.9-2.2-3.4v-5.2"/>
	<path id="XMLID_121_" class="st0" d="M36.5,43.9"/>
	<path id="XMLID_120_" class="st0" d="M46,50.9c-4.5,0-8.3-2.9-9.5-7"/>
	<line id="XMLID_119_" class="st0" x1="42" y1="38" x2="50" y2="38"/>
</g>
<g>
	<path class="st1" d="M85.4,36.9v10.7h-3.1V36.9h-2.9v-2.6h8.9v2.6H85.4z"/>
	<path class="st1" d="M95,34.3v13.3h-3V34.3H95z"/>
	<path class="st1" d="M99.4,47.6l2.1-13.3h2.6l3.3,8l3.3-8h2.6l2.1,13.3h-3.1l-1.1-7.9l-3.3,7.9h-1.1l-3.3-7.9l-1.1,7.9
		C102.4,47.6,99.4,47.6,99.4,47.6z"/>
	<path class="st1" d="M123.7,34.3c0.7,0,2.4,0,3.4,1c0.9,0.8,1,1.9,1,2.5c0,0.5-0.1,1.1-0.4,1.7s-0.8,0.8-1.1,1
		c0.6,0.1,1.4,0.4,1.8,0.9c0.4,0.4,0.9,1.2,0.9,2.4c0,1.3-0.5,2.2-1,2.7c-1.1,1.1-2.7,1.1-3.5,1.1h-5V34.3H123.7z M122.7,39.7h0.5
		c0.4,0,1.1-0.1,1.6-0.4c0.3-0.2,0.5-0.6,0.5-1.2c0-0.6-0.3-0.9-0.5-1.1c-0.4-0.3-1-0.3-1.6-0.3h-0.5V39.7z M122.7,45.2h0.7
		c0.8,0,1.7,0,2.3-0.5c0.3-0.3,0.4-0.6,0.4-1.1s-0.2-0.9-0.4-1.1c-0.5-0.5-1.6-0.5-2.2-0.5h-0.8V45.2z"/>
	<path class="st1" d="M141,36.9h-4.4v2.6h4.2V42h-4.2v3h4.4v2.6h-7.5V34.3h7.5V36.9z"/>
	<path class="st1" d="M150.2,34.3c1.7,0,2.8,0.6,3.4,1.2c0.6,0.5,1.2,1.5,1.2,3c0,0.8-0.2,1.9-1,2.7c-0.5,0.4-1.1,0.8-1.9,1l4.1,5.4
		h-3.7l-3.6-5.2v5.2h-3.1V34.3H150.2z M148.6,40.3h0.7c0.6,0,1.3-0.1,1.8-0.6c0.2-0.2,0.5-0.6,0.5-1.3c0-0.8-0.4-1.2-0.6-1.4
		c-0.5-0.4-1.3-0.4-1.7-0.4h-0.7C148.6,36.6,148.6,40.3,148.6,40.3z"/>
</g>
</svg>
