<svg id="tunecore2_Image" data-name="tunecore2 Image" xmlns="http://www.w3.org/2000/svg" viewBox="0 0 306.67 87.69"><defs><style>.cls-1{fill:#fff;}</style></defs><title>TuneCore Main white</title><path class="cls-1" d="M182,50.82a14.74,14.74,0,0,1-1.59,2.84,13.3,13.3,0,0,1-6.77,5,13.92,13.92,0,0,1-4.4.69,13.37,13.37,0,0,1-5.56-1.18,14.39,14.39,0,0,1-4.55-3.22A15.43,15.43,0,0,1,155,44.27a15.18,15.18,0,0,1,1.12-5.84,15.42,15.42,0,0,1,3.05-4.75,14.36,14.36,0,0,1,4.55-3.22,13.31,13.31,0,0,1,5.56-1.18,14.35,14.35,0,0,1,4.57.7,13,13,0,0,1,6.71,5,15.71,15.71,0,0,1,1.57,2.82h3.17A18.52,18.52,0,0,0,183,33.09a15.7,15.7,0,0,0-8.08-6,17.32,17.32,0,0,0-5.5-.85,16.07,16.07,0,0,0-6.7,1.42,17.27,17.27,0,0,0-5.48,3.88,18.71,18.71,0,0,0,0,25.56A17.26,17.26,0,0,0,162.69,61a16.09,16.09,0,0,0,6.7,1.43,16.74,16.74,0,0,0,5.3-.83,16,16,0,0,0,8.15-6,17.81,17.81,0,0,0,2.45-4.75H182Z"/><path class="cls-1" d="M220.34,37.05a18,18,0,0,0-3.68-5.77,16.95,16.95,0,0,0-12.32-5.21,16.43,16.43,0,0,0-6.75,1.41,17.06,17.06,0,0,0-5.52,3.88,18.94,18.94,0,0,0,0,25.86,17,17,0,0,0,5.52,3.88,16.86,16.86,0,0,0,13.51,0,17.08,17.08,0,0,0,5.52-3.88,18.46,18.46,0,0,0,3.7-5.8,18.66,18.66,0,0,0,1.36-7.16A19.25,19.25,0,0,0,220.34,37.05Zm-2.79,13.14a15.23,15.23,0,0,1-3.06,4.8,14.11,14.11,0,0,1-4.57,3.21,13.93,13.93,0,0,1-11.18,0A14.08,14.08,0,0,1,194.17,55a15.29,15.29,0,0,1-3.07-4.8A15.46,15.46,0,0,1,190,44.26a15.37,15.37,0,0,1,4.19-10.67,14.09,14.09,0,0,1,4.57-3.21,13.59,13.59,0,0,1,5.59-1.17,14,14,0,0,1,10.2,4.32,14.76,14.76,0,0,1,3,4.78,15.89,15.89,0,0,1,1.1,6A15.43,15.43,0,0,1,217.55,50.19Z"/><path class="cls-1" d="M250.42,61.06h-3.22V52.49a5.24,5.24,0,0,0-1.36-3.9,6.09,6.09,0,0,0-4.39-1.34H227.95V61.06H224.7v-35H238a29.17,29.17,0,0,1,6.94.78A10.38,10.38,0,0,1,248.54,29a9,9,0,0,1,2.22,3.35,12.69,12.69,0,0,1,.6,4.44,9.15,9.15,0,0,1-1.11,4.84,9.52,9.52,0,0,1-3.53,3.48q3.68,2.17,3.68,7.36v8.57ZM240,44.15a10.11,10.11,0,0,0,5.51-1.54c1.63-1.1,2.83-2.41,2.83-6s-1.29-5.05-2.92-6.1a11.75,11.75,0,0,0-5.85-1.37H227.95v15h12Z"/><path class="cls-1" d="M280.19,26.08v3.05H258.44V41.78h19.74v3.05H258.44V58h21.75v3.1h-25v-35h25Z"/><path class="cls-1" d="M42.13,55.15a6,6,0,0,1-2.43-1.08,5.36,5.36,0,0,1-1.65-2.19,9.26,9.26,0,0,1-.61-3.63V32.1h7.81v-6H37.45V18.78H31.28v7.35H26.6v6h4.67V48.24a15.83,15.83,0,0,0,1,5.88,11.54,11.54,0,0,0,2.84,4.24,10.27,10.27,0,0,0,4.39,2.37,14.09,14.09,0,0,0,3.64.45,18.05,18.05,0,0,0,2-.11l0.25,0V55.28l-0.3,0A10.2,10.2,0,0,1,42.13,55.15Zm29.34-7.64A8.67,8.67,0,0,1,69,53.72a8.29,8.29,0,0,1-2.75,1.81,9,9,0,0,1-3.4.65,7.72,7.72,0,0,1-6.1-2.37,9.43,9.43,0,0,1-2.1-6.42V26.12H48.44v21A19,19,0,0,0,49.32,53a13.32,13.32,0,0,0,2.63,4.67,11.94,11.94,0,0,0,4.27,3.08,14.34,14.34,0,0,0,5.72,1.09,13.62,13.62,0,0,0,5.86-1.23,12.5,12.5,0,0,0,3.87-2.84v3.27h6v-35H71.48V47.51Zm35.47-18.08a11.94,11.94,0,0,0-4.27-3.08A14.34,14.34,0,0,0,97,25.26a13.34,13.34,0,0,0-5.83,1.26,12.85,12.85,0,0,0-3.9,2.87V26.12h-6v35h6.24V39.76a9.13,9.13,0,0,1,.65-3.47,8.25,8.25,0,0,1,1.81-2.75,8.64,8.64,0,0,1,2.78-1.84,9,9,0,0,1,3.5-.68,7.46,7.46,0,0,1,6.06,2.47,9.72,9.72,0,0,1,2.07,6.4V61.08h6.17v-21a19.31,19.31,0,0,0-.88-6A13.3,13.3,0,0,0,106.95,29.43ZM148.49,45.1A22.45,22.45,0,0,0,147,36.79a19.14,19.14,0,0,0-3.93-6.24,17.21,17.21,0,0,0-5.67-3.94,16.8,16.8,0,0,0-6.59-1.36A16.36,16.36,0,0,0,124,26.72a18.1,18.1,0,0,0-5.56,3.93,18.77,18.77,0,0,0-5.15,13,18.5,18.5,0,0,0,1.39,7.19,17.8,17.8,0,0,0,9.46,9.63,18.86,18.86,0,0,0,17.44-1.6,16.52,16.52,0,0,0,6.12-8.66l0.12-.37h-6.58l-0.08.16a10.67,10.67,0,0,1-3.87,4.56,11,11,0,0,1-6.09,1.62,11.33,11.33,0,0,1-7.59-2.93,12.32,12.32,0,0,1-2.68-3.49,12.57,12.57,0,0,1-1.3-4.36h28.88V45.1ZM120,39.75a11.72,11.72,0,0,1,1.57-3.5,12.86,12.86,0,0,1,2.61-2.87,11.11,11.11,0,0,1,3.19-1.79,10.08,10.08,0,0,1,7,0,10.89,10.89,0,0,1,3.16,1.86,12.63,12.63,0,0,1,2.52,2.91,13,13,0,0,1,1.51,3.37H120Z"/></svg>