<svg xmlns="http://www.w3.org/2000/svg" viewBox="0 0 792 360"><defs><style>.cls-1{fill:#333;}.cls-2{fill:#5aa4de;}.cls-3{fill:#ed124d;}</style></defs><title>VS Horizontal Color</title><g id="VS_Logo_Color" data-name="VS Logo Color"><g id="Letterforms"><path class="cls-1" d="M355.76,121.44h45.31v11.71H369.39v13.92h31v11.71h-31v14.88h31.68v11.81H355.76Z"/><path class="cls-1" d="M438.61,162.52h-10v22.94H415v-64h29.95c13.34,0,21.5,8.74,21.5,20.64,0,11.33-7.1,17.38-14,19l14.4,24.38H451.18Zm4.32-29.37h-14.3v17.66h14.3c5.47,0,9.6-3.46,9.6-8.83S448.4,133.15,442.92,133.15Z"/><path class="cls-1" d="M483.05,166.07a28.07,28.07,0,0,0,20.35,8.64c7.49,0,11.13-3.55,11.13-7.2,0-4.8-5.57-6.43-13-8.16-10.46-2.4-23.9-5.28-23.9-19.58,0-10.66,9.21-19.29,24.29-19.29,10.17,0,18.62,3.07,25,8.93l-7.58,10a27.32,27.32,0,0,0-18.33-7c-6.14,0-9.41,2.69-9.41,6.53,0,4.32,5.38,5.66,12.77,7.39,10.56,2.4,24,5.57,24,19.77,0,11.71-8.35,20.54-25.63,20.54-12.29,0-21.12-4.13-27.17-10.18Z"/><path class="cls-1" d="M540.85,121.44h13.82v38c0,8.93,4.89,15.07,14.88,15.07,9.79,0,14.69-6.14,14.69-15.07v-38h13.82v38.4c0,15.93-9.12,26.78-28.51,26.78-19.58,0-28.7-10.94-28.7-26.69Z"/><path class="cls-1" d="M617.07,166.07a28.07,28.07,0,0,0,20.35,8.64c7.49,0,11.13-3.55,11.13-7.2,0-4.8-5.57-6.43-13-8.16-10.46-2.4-23.9-5.28-23.9-19.58,0-10.66,9.22-19.29,24.29-19.29,10.18,0,18.62,3.07,25,8.93l-7.58,10a27.32,27.32,0,0,0-18.33-7c-6.14,0-9.41,2.69-9.41,6.53,0,4.32,5.38,5.66,12.77,7.39,10.56,2.4,24,5.57,24,19.77,0,11.71-8.35,20.54-25.63,20.54-12.29,0-21.12-4.13-27.17-10.18Z"/><path class="cls-1" d="M292.64,230.63A13.81,13.81,0,0,0,302.77,235c4.61,0,6.43-2.26,6.43-4.37,0-2.88-3.41-3.74-7.29-4.75-5.23-1.3-11.38-2.83-11.38-9.6,0-5.28,4.66-9.36,11.66-9.36a16.66,16.66,0,0,1,12,4.46L311,215.61a13,13,0,0,0-9.27-3.65c-3.31,0-5.42,1.58-5.42,4s3.26,3.31,7.06,4.27c5.28,1.34,11.57,3,11.57,9.94,0,5.33-3.74,9.89-12.38,9.89-5.9,0-10.18-2.06-13-5.09Z"/><path class="cls-1" d="M356.15,226.17l-12.43-18.72h6.43L359,221.17l8.74-13.73h6.43l-12.38,18.72v13.3h-5.62Z"/><path class="cls-1" d="M405.2,230.63A13.81,13.81,0,0,0,415.33,235c4.61,0,6.43-2.26,6.43-4.37,0-2.88-3.41-3.74-7.29-4.75-5.23-1.3-11.38-2.83-11.38-9.6,0-5.28,4.66-9.36,11.66-9.36a16.66,16.66,0,0,1,12,4.46l-3.22,4.18a13,13,0,0,0-9.27-3.65c-3.31,0-5.42,1.58-5.42,4s3.26,3.31,7.06,4.27c5.28,1.34,11.57,3,11.57,9.94,0,5.33-3.74,9.89-12.38,9.89-5.9,0-10.18-2.06-13-5.09Z"/><path class="cls-1" d="M467.27,212.39h-9.7v-4.94h25v4.94h-9.7v27.07h-5.62Z"/><path class="cls-1" d="M514.79,207.45h21.94v4.94H520.4v8.3h16v4.94h-16v8.88h16.32v4.94H514.79Z"/><path class="cls-1" d="M597.59,215.22l-9.84,24.24h-2.4l-9.79-24.24v24.24h-5.62v-32h7.92L586.54,229l8.74-21.55h7.92v32h-5.62Z"/><path class="cls-1" d="M638.53,230.63A13.81,13.81,0,0,0,648.66,235c4.61,0,6.43-2.26,6.43-4.37,0-2.88-3.41-3.74-7.3-4.75-5.23-1.3-11.38-2.83-11.38-9.6,0-5.28,4.66-9.36,11.67-9.36a16.66,16.66,0,0,1,12,4.46l-3.22,4.18A13,13,0,0,0,647.6,212c-3.31,0-5.43,1.58-5.43,4s3.27,3.31,7.06,4.27c5.28,1.34,11.57,3,11.57,9.94,0,5.33-3.74,9.89-12.38,9.89-5.9,0-10.18-2.06-13-5.09Z"/><polygon class="cls-1" points="311.68 187.41 274.73 121.44 291.53 121.44 311.68 159.21 331.83 121.44 348.63 121.44 311.68 187.41"/></g><g id="VS_Split" data-name="VS Split"><polygon class="cls-2" points="180.72 178.64 159.1 216.28 105.92 124.18 125.74 124.18 114.39 104.71 72.2 104.71 159.14 255.29 192.58 197.09 172.96 166.56 180.72 178.64"/><polygon class="cls-3" points="215.31 158.38 245.02 105.03 133.4 105.03 172.96 166.56 192.58 197.09 203.5 178.07 169.06 124.5 211.9 124.5 203.13 140.51 215.31 158.38"/></g></g></svg>