<?xml version="1.0" encoding="UTF-8" standalone="no"?>
<!-- Generator: Adobe Illustrator 19.1.0, SVG Export Plug-In . SVG Version: 6.00 Build 0)  -->

<svg
   xmlns:dc="http://purl.org/dc/elements/1.1/"
   xmlns:cc="http://creativecommons.org/ns#"
   xmlns:rdf="http://www.w3.org/1999/02/22-rdf-syntax-ns#"
   xmlns:svg="http://www.w3.org/2000/svg"
   xmlns="http://www.w3.org/2000/svg"
   xmlns:sodipodi="http://sodipodi.sourceforge.net/DTD/sodipodi-0.dtd"
   xmlns:inkscape="http://www.inkscape.org/namespaces/inkscape"
   version="1.1"
   id="Layer_1"
   x="0px"
   y="0px"
   viewBox="0 0 500 500"
   style="enable-background:new 0 0 500 500;"
   xml:space="preserve"
   inkscape:version="0.91 r13725"
   sodipodi:docname="empex-logo-official-white.svg"><metadata
     id="metadata3359"><rdf:RDF><cc:Work
         rdf:about=""><dc:format>image/svg+xml</dc:format><dc:type
           rdf:resource="http://purl.org/dc/dcmitype/StillImage" /></cc:Work></rdf:RDF></metadata><defs
     id="defs3357" /><sodipodi:namedview
     pagecolor="#ffffff"
     bordercolor="#666666"
     borderopacity="1"
     objecttolerance="10"
     gridtolerance="10"
     guidetolerance="10"
     inkscape:pageopacity="0"
     inkscape:pageshadow="2"
     inkscape:window-width="1067"
     inkscape:window-height="786"
     id="namedview3355"
     showgrid="false"
     inkscape:zoom="2.98"
     inkscape:cx="292.39766"
     inkscape:cy="250"
     inkscape:window-x="0"
     inkscape:window-y="0"
     inkscape:window-maximized="0"
     inkscape:current-layer="g3339" /><style
     type="text/css"
     id="style3337">
	.st0{fill:#FFFFFF;}
	.st1{fill-rule:evenodd;clip-rule:evenodd;fill:#FFFFFF;}
</style><g
     id="g3339"
     style="fill:#000000"><path
       class="st0"
       d="M166.7,237.1v9.4h15.7v7.5h-15.7v9.1h15.7v7.7h-25.3v-41.4h25.3v7.7H166.7z"
       id="path3341"
       style="fill:#ffffff" /><path
       class="st0"
       d="M233.9,270.8h-9.3v-25.7l-8.9,25.7h-7.1l-9.2-25.7v25.7h-9.3v-41.4H201l11.1,28.8l10.9-28.8h10.9V270.8z"
       id="path3343"
       style="fill:#ffffff" /><path
       class="st0"
       d="M241.9,229.4h17.3c9.2,0,15.1,6.9,15.1,15c0,8-5.9,15-15.1,15h-7.7v11.5h-9.6V229.4z M264.6,244.3   c0-3.8-2.6-7.2-6.6-7.2h-6.6v14.3h6.6C262,251.5,264.6,248.2,264.6,244.3z"
       id="path3345"
       style="fill:#ffffff" /><path
       class="st0"
       d="M289.1,237.1l0,9.4l15.7-0.1l0,7.5l-15.7,0.1l0,9.1l15.7-0.1l0,7.7l-25.3,0.1l-0.2-41.4l25.3-0.1l0,7.7   L289.1,237.1z"
       id="path3349"
       style="fill:#ffffff" /><path
       class="st0"
       d="M333.6,229.4h10.6l-12.3,20.7l12.3,20.7h-10.6l-7.2-13.3l-7.2,13.3h-10.5l12.3-20.7l-12.3-20.7h10.5l7.2,13.4   L333.6,229.4z"
       id="path3351"
       style="fill:#ffffff" /></g><path
     class="st1"
     d="M250.8,339.5L239.1,311l-21.7,21.8l0-30.7L189,313.8l11.8-28.4l-30.8,0l4.4-4.4l47.4,0l0,14.4l13.3-5.5  l5.5,13.3l10.2-10.2l10.2,10.2l5.5-13.3l13.3,5.5V281l47.4,0l4.4,4.4l-30.7,0l11.8,28.4L284.3,302l0,30.7L262.6,311L250.8,339.5z   M250.8,328l8.4-20.3l-8.4-8.4l-8.4,8.4L250.8,328z M221.7,322.2l15.5-15.5l-4.5-11l-11,4.6L221.7,322.2z M279.9,322.2l0-22l-11-4.6  l-4.5,11L279.9,322.2z M197.1,305.7l20.3-8.4l0-11.9h-11.9L197.1,305.7z M304.5,305.7l-8.4-20.3h-11.9v11.8L304.5,305.7z   M221.8,219.1l-47.4,0l-4.4-4.4l30.8,0L189,186.2l28.4,11.8l0-30.8l21.7,21.8l11.8-28.5l11.7,28.5l21.8-21.8l0,30.8l28.4-11.8  l-11.8,28.4l30.7,0l-4.4,4.4l-47.4,0l0-14.4l-13.3,5.5l-5.5-13.3L250.8,207l-10.2-10.2l-5.5,13.3l-13.3-5.5L221.8,219.1z   M217.4,214.7l0-11.9l-20.3-8.4l8.4,20.3L217.4,214.7z M284.3,214.7l11.9,0l8.4-20.3l-20.3,8.4V214.7z M232.7,204.4l4.5-11  l-15.5-15.5l0,22L232.7,204.4z M268.9,204.4l11-4.5l0-22l-15.5,15.5L268.9,204.4z M250.8,200.8l8.4-8.4l-8.4-20.3l-8.4,20.3  L250.8,200.8z"
     id="path3353"
     style="fill:#ffffff" /><g
     inkscape:groupmode="layer"
     id="layer1"
     inkscape:label="Layer 1"
     style="display:inline" /></svg>