<?xml version="1.0" encoding="utf-8"?>
<!-- Generator: Adobe Illustrator 18.1.1, SVG Export Plug-In . SVG Version: 6.00 Build 0)  -->
<svg version="1.1" id="Layer_1" xmlns="http://www.w3.org/2000/svg" xmlns:xlink="http://www.w3.org/1999/xlink" x="0px" y="0px"
	 viewBox="0 0 1920 1080" enable-background="new 0 0 1920 1080" xml:space="preserve">
<g>
	<polygon fill="#FFFFFF" points="573.9,577.9 573.9,464 606.6,464 606.6,435.5 508.5,435.5 508.5,464 541.2,464 541.2,577.9 	"/>
	<path fill="#FFFFFF" d="M647.7,529.4c0-14.8,6.3-25.3,19-25.3c12.7,0,16.9,9.5,16.9,24.3V579h30.6v-58c0-13.7-2.1-24.3-8.4-31.6
		c-5.3-7.4-13.7-11.6-26.4-11.6c-15.8,0-26.4,6.3-31.6,16.9v-59.1h-30.6v142.4h30.6V529.4z"/>
	<path fill="#FFFFFF" d="M774.3,581.1c28.5,0,45.4-14.8,48.5-33.8h-30.6c-2.1,6.3-7.4,11.6-17.9,11.6c-15.8,0-21.1-9.5-21.1-22.2
		h70.7c1.1-5.3,1.1-7.4,1.1-11.6c0-27.4-20-48.5-51.7-48.5c-33.8,0-51.7,23.2-51.7,51.7C720.5,556.8,739.5,581.1,774.3,581.1z
		 M772.2,498.8c11.6,0,20,7.4,20,19h-41.1C752.2,506.2,760.6,498.8,772.2,498.8z"/>
	<path fill="#FFFFFF" d="M265.9,454.5c-153,0-246.9,120.3-246.9,250s93.9,251.1,246.9,251.1c154,0,247.9-121.3,247.9-251.1
		S419.9,454.5,265.9,454.5z M265.9,883.8c-101.3,0-164.6-87.6-164.6-180.4S164.6,523,265.9,523s164.6,87.6,164.6,180.4
		S368.2,883.8,265.9,883.8z"/>
	<path fill="#FFFFFF" d="M1751.2,889.1c-62.2,0-82.3-36.9-85.5-82.3h227.9c3.2-20,3.2-35.9,3.2-46.4c0-81.2-65.4-143.5-147.7-143.5
		c-100.2,0-157.2,71.7-157.2,167.7c0,93.9,51.7,167.7,159.3,167.7c81.2,0,134-49.6,142.4-103.4h-74.9
		C1810.3,871.2,1793.4,889.1,1751.2,889.1z M1747,672.8c45.4,0,77,29.5,77,78.1h-158.2C1665.8,699.2,1701.6,672.8,1747,672.8z"/>
	<rect x="1171" y="625.4" fill="#FFFFFF" width="74.9" height="318.6"/>
	<path fill="#FFFFFF" d="M1460.1,618c-47.5,0-84.4,17.9-103.4,52.7v-44.3h-74.9V945h74.9V779.4c0-54.9,24.3-96,76-96
		c52.7,0,68.6,41.1,68.6,96V944h74.9V755.1c0-43.3-5.3-70.7-20-93.9C1538.1,633.8,1505.4,618,1460.1,618z"/>
	<path fill="#FFFFFF" d="M951.6,819.5V687.6h72.8v-62.2h-72.8v-96h-74.9v96H825h-2.1h-71.7v164.6c0,54.9-24.3,96-76,96
		c-52.7,0-68.6-41.1-68.6-96V625.4h-74.9v188.8c0,43.3,5.3,70.7,20,93.9c17.9,26.4,49.6,43.3,96,43.3c47.5,0,84.4-17.9,103.4-52.7
		v44.3H826V687.6h51.7v147.7c0,107.6,66.5,111.8,103.4,111.8c22.2,0,43.3-2.1,54.9-4.2v-65.4c-7.4,1.1-26.4,3.2-38,3.2
		C968.5,880.7,951.6,873.3,951.6,819.5z"/>
	<rect x="1060.2" y="466.1" fill="#FFFFFF" width="74.9" height="477.9"/>
</g>
</svg>
