<?xml version="1.0" encoding="utf-8"?>
<!-- Generator: Adobe Illustrator 19.0.0, SVG Export Plug-In . SVG Version: 6.00 Build 0)  -->
<!DOCTYPE svg PUBLIC "-//W3C//DTD SVG 1.1//EN" "http://www.w3.org/Graphics/SVG/1.1/DTD/svg11.dtd">
<svg version="1.1" id="_x32_-Color_Gray__x2B__Orange"
	 xmlns="http://www.w3.org/2000/svg" xmlns:xlink="http://www.w3.org/1999/xlink" x="0px" y="0px" viewBox="0 0 398 104"
	 style="enable-background:new 0 0 398 104;" xml:space="preserve">
<style type="text/css">
	.st0{fill:#55555A;}
	.st1{fill:#FA6423;}
</style>
<g>
	<g>
		<g>
			<path class="st0" d="M0.5,92.5L6.7,85c4.3,3.6,8.8,5.8,14.3,5.8c4.3,0,6.9-1.7,6.9-4.5v-0.1c0-2.7-1.6-4-9.7-6.1
				C8.7,77.6,2.4,74.9,2.4,65.4v-0.1c0-8.7,7-14.5,16.8-14.5c7,0,12.9,2.2,17.8,6.1l-5.5,7.9c-4.2-2.9-8.4-4.7-12.5-4.7
				c-4,0-6.2,1.9-6.2,4.2v0.1c0,3.2,2.1,4.2,10.3,6.3c9.7,2.5,15.2,6,15.2,14.4v0.1c0,9.5-7.3,14.9-17.6,14.9
				C13.6,100.1,6.3,97.6,0.5,92.5z"/>
			<path class="st0" d="M44.9,51.5h19.6c11.4,0,18.4,6.8,18.4,16.6v0.1c0,11.1-8.6,16.9-19.4,16.9h-8v14.4H44.9V51.5z M63.8,75.7
				c5.3,0,8.4-3.2,8.4-7.3v-0.1c0-4.7-3.3-7.3-8.6-7.3h-8.2v14.7H63.8z"/>
			<path class="st0" d="M97.8,51.2h9.7l20.6,48.3h-11l-4.4-10.8H92.4L88,99.5H77.3L97.8,51.2z M108.9,79.4l-6.4-15.6l-6.4,15.6
				H108.9z"/>
			<path class="st0" d="M133.1,51.5H155c6.1,0,10.8,1.7,14,4.9c2.7,2.7,4.1,6.4,4.1,11v0.1c0,7.7-4.2,12.6-10.3,14.9l11.7,17.1
				h-12.3l-10.3-15.3h-8.3v15.3h-10.6V51.5z M154.3,74.8c5.1,0,8.1-2.7,8.1-6.8v-0.1c0-4.5-3.2-6.9-8.3-6.9h-10.5v13.8H154.3z"/>
			<g>
				<path class="st0" d="M229.2,51.5h17.4c10.6,0,17.8,5.4,17.8,14.7v0.1c0,10.1-8.7,15.3-18.7,15.3h-12.9v17.9h-3.6V51.5z
					 M245.9,78.3c8.9,0,14.9-4.7,14.9-11.8v-0.1c0-7.6-5.9-11.6-14.5-11.6h-13.6v23.5H245.9z"/>
				<path class="st0" d="M321.5,92.5l2.3-2.7c5.3,4.9,10.1,7.1,17.2,7.1c7.2,0,12.1-4,12.1-9.5v-0.1c0-5.1-2.7-8-13.6-10.2
					c-11.5-2.3-16.2-6.2-16.2-13.5v-0.1c0-7.1,6.5-12.6,15.4-12.6c7,0,11.6,1.9,16.4,5.8l-2.3,2.8c-4.5-3.9-9-5.4-14.3-5.4
					c-7.1,0-11.7,4-11.7,9v0.1c0,5.1,2.6,8.2,14,10.5c11.1,2.3,15.8,6.2,15.8,13.2v0.1c0,7.7-6.6,13.1-15.9,13.1
					C333.1,100.1,327.2,97.6,321.5,92.5z"/>
				<path class="st0" d="M377.2,54.8h-16.7v-3.3h37v3.3h-16.7v44.7h-3.6V54.8z"/>
			</g>
			<g>
				<path class="st0" d="M190.9,71.7l16.6-20.2h12.9l-19.5,22.8l20.9,25.2h-13.6L190.9,78v21.4h-10.5v-48h10.5V71.7z"/>
			</g>
		</g>
		<path class="st1" d="M310.5,40.6c-5.3,4-6.4,11.1-6.5,15.9c-8.4-9.8,15.6-38.5-11.7-56.2c16.9,21.9-24.1,43.5-24.1,75.8
			c0,12.7,7.9,23.8,25.3,27.7c17-3.6,25.5-15,25.5-27.7C318.9,57.2,307.1,50.9,310.5,40.6z M293.5,93.4c-9.3,0-16.8-7.5-16.8-16.8
			c0-9.3,7.5-16.8,16.8-16.8c9.3,0,16.8,7.5,16.8,16.8C310.3,85.9,302.7,93.4,293.5,93.4z"/>
	</g>
</g>
</svg>
